<?xml version="1.0" encoding="UTF-8"?>
<svg version="1.1" xmlns="http://www.w3.org/2000/svg" width="500" height="500">
<path d="M0 0 C165 0 330 0 500 0 C500 165 500 330 500 500 C335 500 170 500 0 500 C0 335 0 170 0 0 Z " fill="#1D3432" transform="translate(0,0)"/>
<path d="M0 0 C5.39022147 3.74748731 9.67178588 8.73029051 12.61328125 14.61328125 C12.65350516 16.94626785 12.65648372 19.28034791 12.61328125 21.61328125 C13.27328125 21.61328125 13.93328125 21.61328125 14.61328125 21.61328125 C14.85433594 21.01773438 15.09539062 20.4221875 15.34375 19.80859375 C16.86607001 17.17615116 18.37802116 16.12398604 20.92578125 14.48828125 C21.68503906 13.99070312 22.44429687 13.493125 23.2265625 12.98046875 C31.08303129 8.48003655 38.77101558 8.52752799 47.515625 10.48828125 C55.18232672 12.68312989 61.19267582 15.63320966 66.61328125 21.61328125 C67.2371875 22.24363281 67.86109375 22.87398437 68.50390625 23.5234375 C76.14133885 31.59408581 78.08301752 38.40326723 77.8515625 49.4765625 C77.65896143 52.01195038 77.3484826 54.19249631 76.61328125 56.61328125 C77.23203125 56.28328125 77.85078125 55.95328125 78.48828125 55.61328125 C86.40270728 53.08066492 93.19885456 54.55093801 100.6484375 57.92578125 C105.66405172 60.7805182 109.60797478 64.49733095 113.61328125 68.61328125 C114.13792969 69.10570312 114.66257812 69.598125 115.203125 70.10546875 C121.3910156 76.46263295 122.86412722 85.74126977 123.11328125 94.23828125 C122.79628457 104.57237303 119.68344596 111.22174542 112.61328125 118.61328125 C113.79083984 119.03287109 113.79083984 119.03287109 114.9921875 119.4609375 C126.19571264 123.73614771 131.32484794 128.69436561 136.38671875 139.5625 C141.08449203 151.24708896 139.78968981 161.06878904 135.05859375 172.55859375 C131.60793932 179.85159852 127.17146923 185.38208565 119.61328125 188.61328125 C116.88264769 189.23769234 114.42698611 189.46254706 111.61328125 189.61328125 C112.15597656 190.25394531 112.69867188 190.89460937 113.2578125 191.5546875 C121.30095352 201.27891746 123.44938979 207.96897309 122.61328125 220.61328125 C121.31897933 230.29657712 116.83018836 239.07420519 109.61328125 245.61328125 C100.08627771 252.74099524 91.57039227 255.76008456 79.61328125 254.61328125 C77.25 253.59765625 77.25 253.59765625 75.61328125 252.61328125 C75.94328125 253.35578125 76.27328125 254.09828125 76.61328125 254.86328125 C79.07930411 264.11086699 78.10360944 271.43784525 73.44921875 279.78515625 C66.66118498 290.24161679 59.05521188 296.42260227 46.828125 299.10546875 C37.53159818 300.57393593 28.88125835 300.52937574 20.61328125 295.61328125 C18.33360454 293.74020018 16.55252375 291.85871993 14.61328125 289.61328125 C14.18917969 290.55429687 13.76507813 291.4953125 13.328125 292.46484375 C8.05004854 303.82937815 3.4398171 308.97686279 -8.54296875 313.57421875 C-9.950625 314.08855469 -9.950625 314.08855469 -11.38671875 314.61328125 C-12.54171875 315.06703125 -13.69671875 315.52078125 -14.88671875 315.98828125 C-25.90032635 317.95499689 -37.12283258 314.88756158 -46.2890625 308.6328125 C-52.21212994 303.71866697 -55.27387313 298.97502008 -57.38671875 291.61328125 C-57.88171875 290.12828125 -57.88171875 290.12828125 -58.38671875 288.61328125 C-58.96421875 289.50015625 -59.54171875 290.38703125 -60.13671875 291.30078125 C-64.84590346 296.85418955 -71.77362985 299.14111622 -78.82421875 300.0625 C-88.72354028 300.38290215 -98.97413745 298.90784477 -106.76171875 292.36328125 C-107.99625996 291.13915811 -109.20511618 289.88857918 -110.38671875 288.61328125 C-111.01320313 287.98164063 -111.6396875 287.35 -112.28515625 286.69921875 C-119.28812612 279.28257133 -122.63856903 271.02466497 -122.5546875 260.875 C-122.3343386 257.9079765 -121.51174547 255.35553388 -120.38671875 252.61328125 C-120.9178125 252.93683594 -121.44890625 253.26039063 -121.99609375 253.59375 C-127.73592978 256.04162125 -135.75200708 255.47280401 -141.63671875 253.55078125 C-151.43048839 249.1271248 -160.68482144 240.3424669 -164.82421875 230.42578125 C-168.24638988 220.59646153 -168.96113141 210.56771407 -164.67578125 200.91796875 C-162.67380324 197.33867473 -160.21771555 194.57295972 -157.38671875 191.61328125 C-158.546875 191.12021484 -158.546875 191.12021484 -159.73046875 190.6171875 C-170.73980389 185.58940945 -176.87115426 179.30351826 -181.48828125 168.1015625 C-182.53965917 165.18970277 -183.19300285 162.7127356 -183.38671875 159.61328125 C-183.44859375 158.82695312 -183.51046875 158.040625 -183.57421875 157.23046875 C-184.08179992 146.09540686 -180.41537829 136.22017766 -173.38671875 127.61328125 C-168.74925187 123.09785297 -162.70491409 120.00638 -156.38671875 118.61328125 C-157.07507813 117.92105469 -157.07507813 117.92105469 -157.77734375 117.21484375 C-164.00521306 110.59446167 -167.48042407 104.11662439 -167.94921875 94.92578125 C-167.49022876 83.78093056 -163.85789328 73.71879831 -155.921875 65.76953125 C-148.1546816 59.16322808 -140.13079021 54.14915173 -129.7109375 54.34375 C-125.95100932 54.77977528 -122.84592319 56.10381022 -119.38671875 57.61328125 C-119.88171875 56.66453125 -120.37671875 55.71578125 -120.88671875 54.73828125 C-123.58476809 48.32234574 -123.15683236 42.0257949 -120.82421875 35.55078125 C-116.44861938 25.80859311 -108.7496325 17.03431352 -98.95703125 12.484375 C-96.77758589 11.72487131 -94.6368721 11.12109796 -92.38671875 10.61328125 C-91.43796875 10.38640625 -90.48921875 10.15953125 -89.51171875 9.92578125 C-80.72343089 9.04695246 -73.20632371 9.01429325 -65.38671875 13.61328125 C-62.81597356 15.76478305 -60.55388606 18.0586072 -58.38671875 20.61328125 C-58.16757813 19.90042969 -57.9484375 19.18757813 -57.72265625 18.453125 C-54.77774331 9.55853022 -51.00648975 3.48205904 -42.7734375 -1.25390625 C-27.83169144 -8.34573335 -14.38996548 -8.36078191 0 0 Z " fill="#1F3533" transform="translate(272.38671875,95.38671875)"/>
<path d="M0 0 C5.39022147 3.74748731 9.67178588 8.73029051 12.61328125 14.61328125 C12.65350516 16.94626785 12.65648372 19.28034791 12.61328125 21.61328125 C13.27328125 21.61328125 13.93328125 21.61328125 14.61328125 21.61328125 C14.85433594 21.01773438 15.09539062 20.4221875 15.34375 19.80859375 C16.86607001 17.17615116 18.37802116 16.12398604 20.92578125 14.48828125 C21.68503906 13.99070312 22.44429687 13.493125 23.2265625 12.98046875 C31.08303129 8.48003655 38.77101558 8.52752799 47.515625 10.48828125 C55.18232672 12.68312989 61.19267582 15.63320966 66.61328125 21.61328125 C67.2371875 22.24363281 67.86109375 22.87398437 68.50390625 23.5234375 C76.14133885 31.59408581 78.08301752 38.40326723 77.8515625 49.4765625 C77.65896143 52.01195038 77.3484826 54.19249631 76.61328125 56.61328125 C77.23203125 56.28328125 77.85078125 55.95328125 78.48828125 55.61328125 C86.40270728 53.08066492 93.19885456 54.55093801 100.6484375 57.92578125 C105.66405172 60.7805182 109.60797478 64.49733095 113.61328125 68.61328125 C114.13792969 69.10570312 114.66257812 69.598125 115.203125 70.10546875 C121.3910156 76.46263295 122.86412722 85.74126977 123.11328125 94.23828125 C122.79628457 104.57237303 119.68344596 111.22174542 112.61328125 118.61328125 C113.79083984 119.03287109 113.79083984 119.03287109 114.9921875 119.4609375 C126.19571264 123.73614771 131.32484794 128.69436561 136.38671875 139.5625 C141.08449203 151.24708896 139.78968981 161.06878904 135.05859375 172.55859375 C131.60793932 179.85159852 127.17146923 185.38208565 119.61328125 188.61328125 C116.88264769 189.23769234 114.42698611 189.46254706 111.61328125 189.61328125 C112.15597656 190.25394531 112.69867188 190.89460937 113.2578125 191.5546875 C121.30095352 201.27891746 123.44938979 207.96897309 122.61328125 220.61328125 C121.31897933 230.29657712 116.83018836 239.07420519 109.61328125 245.61328125 C100.08627771 252.74099524 91.57039227 255.76008456 79.61328125 254.61328125 C77.25 253.59765625 77.25 253.59765625 75.61328125 252.61328125 C75.94328125 253.35578125 76.27328125 254.09828125 76.61328125 254.86328125 C79.07930411 264.11086699 78.10360944 271.43784525 73.44921875 279.78515625 C66.66118498 290.24161679 59.05521188 296.42260227 46.828125 299.10546875 C37.53159818 300.57393593 28.88125835 300.52937574 20.61328125 295.61328125 C18.33360454 293.74020018 16.55252375 291.85871993 14.61328125 289.61328125 C14.18917969 290.55429687 13.76507813 291.4953125 13.328125 292.46484375 C8.05004854 303.82937815 3.4398171 308.97686279 -8.54296875 313.57421875 C-9.950625 314.08855469 -9.950625 314.08855469 -11.38671875 314.61328125 C-12.54171875 315.06703125 -13.69671875 315.52078125 -14.88671875 315.98828125 C-25.90032635 317.95499689 -37.12283258 314.88756158 -46.2890625 308.6328125 C-52.21212994 303.71866697 -55.27387313 298.97502008 -57.38671875 291.61328125 C-57.88171875 290.12828125 -57.88171875 290.12828125 -58.38671875 288.61328125 C-58.96421875 289.50015625 -59.54171875 290.38703125 -60.13671875 291.30078125 C-64.84590346 296.85418955 -71.77362985 299.14111622 -78.82421875 300.0625 C-88.72354028 300.38290215 -98.97413745 298.90784477 -106.76171875 292.36328125 C-107.99625996 291.13915811 -109.20511618 289.88857918 -110.38671875 288.61328125 C-111.01320313 287.98164063 -111.6396875 287.35 -112.28515625 286.69921875 C-119.28812612 279.28257133 -122.63856903 271.02466497 -122.5546875 260.875 C-122.3343386 257.9079765 -121.51174547 255.35553388 -120.38671875 252.61328125 C-120.9178125 252.93683594 -121.44890625 253.26039063 -121.99609375 253.59375 C-127.73592978 256.04162125 -135.75200708 255.47280401 -141.63671875 253.55078125 C-151.43048839 249.1271248 -160.68482144 240.3424669 -164.82421875 230.42578125 C-168.24638988 220.59646153 -168.96113141 210.56771407 -164.67578125 200.91796875 C-162.67380324 197.33867473 -160.21771555 194.57295972 -157.38671875 191.61328125 C-158.546875 191.12021484 -158.546875 191.12021484 -159.73046875 190.6171875 C-170.73980389 185.58940945 -176.87115426 179.30351826 -181.48828125 168.1015625 C-182.53965917 165.18970277 -183.19300285 162.7127356 -183.38671875 159.61328125 C-183.44859375 158.82695312 -183.51046875 158.040625 -183.57421875 157.23046875 C-184.08179992 146.09540686 -180.41537829 136.22017766 -173.38671875 127.61328125 C-168.74925187 123.09785297 -162.70491409 120.00638 -156.38671875 118.61328125 C-157.07507813 117.92105469 -157.07507813 117.92105469 -157.77734375 117.21484375 C-164.00521306 110.59446167 -167.48042407 104.11662439 -167.94921875 94.92578125 C-167.49022876 83.78093056 -163.85789328 73.71879831 -155.921875 65.76953125 C-148.1546816 59.16322808 -140.13079021 54.14915173 -129.7109375 54.34375 C-125.95100932 54.77977528 -122.84592319 56.10381022 -119.38671875 57.61328125 C-119.88171875 56.66453125 -120.37671875 55.71578125 -120.88671875 54.73828125 C-123.58476809 48.32234574 -123.15683236 42.0257949 -120.82421875 35.55078125 C-116.44861938 25.80859311 -108.7496325 17.03431352 -98.95703125 12.484375 C-96.77758589 11.72487131 -94.6368721 11.12109796 -92.38671875 10.61328125 C-91.43796875 10.38640625 -90.48921875 10.15953125 -89.51171875 9.92578125 C-80.72343089 9.04695246 -73.20632371 9.01429325 -65.38671875 13.61328125 C-62.81597356 15.76478305 -60.55388606 18.0586072 -58.38671875 20.61328125 C-58.16757813 19.90042969 -57.9484375 19.18757813 -57.72265625 18.453125 C-54.77774331 9.55853022 -51.00648975 3.48205904 -42.7734375 -1.25390625 C-27.83169144 -8.34573335 -14.38996548 -8.36078191 0 0 Z M-38.07421875 8.28125 C-39.86615747 10.09985447 -40.3689098 11.21863481 -40.484375 13.77734375 C-40.47277344 14.58945313 -40.46117187 15.4015625 -40.44921875 16.23828125 C-40.44019531 17.05554688 -40.43117187 17.8728125 -40.421875 18.71484375 C-40.41027344 19.34132813 -40.39867187 19.9678125 -40.38671875 20.61328125 C-41.10988281 20.85691406 -41.83304688 21.10054687 -42.578125 21.3515625 C-46.63503327 23.17406789 -49.51364318 26.06728101 -52.7890625 29.03125 C-55.38671875 30.61328125 -55.38671875 30.61328125 -58.453125 30.4140625 C-59.42121094 30.14980469 -60.38929688 29.88554688 -61.38671875 29.61328125 C-64.41219866 28.80004135 -66.99466227 28.50457454 -70.13671875 28.55078125 C-71.33554688 28.56431641 -71.33554688 28.56431641 -72.55859375 28.578125 C-73.161875 28.58972656 -73.76515625 28.60132812 -74.38671875 28.61328125 C-74.55171875 27.87078125 -74.71671875 27.12828125 -74.88671875 26.36328125 C-76.60925642 23.20529552 -78.34999589 21.81330604 -81.63671875 20.36328125 C-87.90470977 18.65382915 -94.03485 18.38214162 -100.38671875 19.61328125 C-103.59084426 22.12566982 -104.90127344 24.87878822 -106.38671875 28.61328125 C-106.71800781 29.25523438 -107.04929687 29.8971875 -107.390625 30.55859375 C-109.26722324 34.31179023 -109.92802922 37.46323434 -109.38671875 41.61328125 C-108.85046875 42.45890625 -108.31421875 43.30453125 -107.76171875 44.17578125 C-106.38671875 46.61328125 -106.38671875 46.61328125 -107.01171875 48.86328125 C-107.46546875 49.77078125 -107.91921875 50.67828125 -108.38671875 51.61328125 C-108.95036469 53.14704856 -109.49047632 54.6895898 -110.01171875 56.23828125 C-110.27210938 56.99367187 -110.5325 57.7490625 -110.80078125 58.52734375 C-111.5219349 60.73353911 -111.5219349 60.73353911 -111.38671875 63.61328125 C-112.04671875 63.61328125 -112.70671875 63.61328125 -113.38671875 63.61328125 C-113.38671875 64.27328125 -113.38671875 64.93328125 -113.38671875 65.61328125 C-114.05058594 65.72285156 -114.71445313 65.83242187 -115.3984375 65.9453125 C-121.03772564 66.90722303 -121.03772564 66.90722303 -126.13671875 69.36328125 C-126.87921875 69.77578125 -127.62171875 70.18828125 -128.38671875 70.61328125 C-130.40469763 70.00319461 -132.40220104 69.32471213 -134.38671875 68.61328125 C-142.0262018 67.54427509 -147.11809577 69.28378484 -153.38671875 73.61328125 C-154.49080078 74.18175781 -154.49080078 74.18175781 -155.6171875 74.76171875 C-157.97091398 77.22455838 -157.88184152 79.31394326 -157.88476562 82.62695312 C-157.85479492 83.76487305 -157.85479492 83.76487305 -157.82421875 84.92578125 C-157.83130859 85.67279297 -157.83839844 86.41980469 -157.84570312 87.18945312 C-157.78092204 92.86527274 -156.50289847 96.96805659 -152.88671875 101.48828125 C-151.29921875 102.91328125 -151.29921875 102.91328125 -148.38671875 102.61328125 C-148.40992188 103.27714844 -148.433125 103.94101563 -148.45703125 104.625 C-148.55828041 109.57897665 -148.30266631 113.0150071 -146.38671875 117.61328125 C-146.22312934 121.21224826 -146.94292062 123.06662862 -149.20703125 125.85546875 C-150.63562318 127.41719111 -152.09088325 128.95502012 -153.57421875 130.46484375 C-155.38537218 132.6116851 -155.99009067 133.87406858 -156.38671875 136.61328125 C-157.58296875 136.53078125 -158.77921875 136.44828125 -160.01171875 136.36328125 C-164.59123725 136.40359391 -166.9007149 137.50619086 -170.38671875 140.61328125 C-176.32612113 148.32054925 -176.32612113 148.32054925 -177.38671875 157.61328125 C-174.79564906 164.27257251 -170.53759834 169.88650522 -164.38671875 173.61328125 C-162.25690469 174.10393678 -162.25690469 174.10393678 -160.13671875 174.17578125 C-156.38671875 174.61328125 -156.38671875 174.61328125 -154.19921875 177.36328125 C-153.60109375 178.43578125 -153.00296875 179.50828125 -152.38671875 180.61328125 C-151.49984375 181.43828125 -150.61296875 182.26328125 -149.69921875 183.11328125 C-146.94443723 186.09142343 -146.46883634 187.58951951 -146.38671875 191.61328125 C-147.05338542 193.61328125 -147.72005208 195.61328125 -148.38671875 197.61328125 C-148.55961403 200.62165907 -148.50711123 203.60346913 -148.38671875 206.61328125 C-149.12921875 206.81953125 -149.87171875 207.02578125 -150.63671875 207.23828125 C-154.3509319 209.09538783 -155.41219331 210.96389847 -157.38671875 214.61328125 C-158.67361575 220.33462774 -158.71849374 226.89827207 -157.38671875 232.61328125 C-154.95019692 236.19702071 -152.3053548 237.86665235 -148.38671875 239.61328125 C-147.35546875 240.08765625 -146.32421875 240.56203125 -145.26171875 241.05078125 C-141.09564473 241.86588269 -137.15899109 242.49941742 -133.26171875 240.55078125 C-130.57751244 239.2086781 -129.23516095 239.75212431 -126.38671875 240.61328125 C-124.68515625 241.38671875 -124.68515625 241.38671875 -122.94921875 242.17578125 C-119.41267654 243.60280705 -117.14537517 243.88830489 -113.38671875 243.61328125 C-113.38671875 244.27328125 -113.38671875 244.93328125 -113.38671875 245.61328125 C-112.72671875 245.61328125 -112.06671875 245.61328125 -111.38671875 245.61328125 C-111.30421875 246.58265625 -111.22171875 247.55203125 -111.13671875 248.55078125 C-110.5974278 252.63279886 -108.94859949 255.88973991 -107.03125 259.5 C-106.38671875 261.61328125 -106.38671875 261.61328125 -107.24609375 263.5625 C-107.81070313 264.57763672 -107.81070313 264.57763672 -108.38671875 265.61328125 C-109.6172311 273.72171002 -107.70861839 279.78346239 -103.38671875 286.61328125 C-102.98582031 287.35835938 -102.58492188 288.1034375 -102.171875 288.87109375 C-100.39655027 290.94368599 -100.39655027 290.94368599 -97.05859375 291.109375 C-85.69874842 291.01513484 -85.69874842 291.01513484 -75.94921875 285.61328125 C-74.07889673 283.64226782 -74.07889673 283.64226782 -74.38671875 280.61328125 C-73.81824219 280.63648438 -73.24976563 280.6596875 -72.6640625 280.68359375 C-67.46750473 280.80504919 -63.40873508 280.06193981 -58.38671875 278.61328125 C-53.46954781 278.73035675 -51.67217378 281.17137598 -48.38671875 284.61328125 C-47.16403044 285.35325964 -45.93454205 286.0820942 -44.69921875 286.80078125 C-42.35801045 288.38821033 -41.51850642 289.09509572 -40.8125 291.87109375 C-40.71324219 292.71414063 -40.61398438 293.5571875 -40.51171875 294.42578125 C-39.7455446 300.12952214 -37.10600495 302.49425744 -32.6953125 305.98046875 C-27.62750768 309.58684127 -27.62750768 309.58684127 -21.63671875 310.67578125 C-14.85642766 308.45914762 -8.22526356 304.78833159 -4.38671875 298.61328125 C-3.22896815 295.14002944 -3.31805223 292.25260677 -3.38671875 288.61328125 C-2.68546875 288.38640625 -1.98421875 288.15953125 -1.26171875 287.92578125 C3.39614063 285.79936718 6.74844082 282.9105419 9.61328125 278.61328125 C12.7361876 279.09906668 15.60908484 279.61188245 18.61328125 280.61328125 C20.44581618 280.71263555 22.27935324 280.79426245 24.11328125 280.86328125 C27.0859375 281.10546875 27.0859375 281.10546875 29.61328125 281.61328125 C31.55078125 283.98828125 31.55078125 283.98828125 32.61328125 286.61328125 C37.91970313 291.40617844 45.04382032 291.58256085 51.95703125 291.36328125 C55.71156068 290.92525721 55.71156068 290.92525721 58.08203125 288.30078125 C59.86186911 285.46510737 61.2949922 282.68785767 62.61328125 279.61328125 C62.99226562 278.92621094 63.37125 278.23914063 63.76171875 277.53125 C65.30967778 274.04479182 65.11370491 270.34617123 64.61328125 266.61328125 C64.01515625 265.80890625 63.41703125 265.00453125 62.80078125 264.17578125 C62.40890625 263.33015625 62.01703125 262.48453125 61.61328125 261.61328125 C62.60308764 258.94172048 63.88727697 256.58753157 65.3046875 254.1171875 C66.84723104 251.48943981 66.84723104 251.48943981 67.23828125 247.67578125 C68.61328125 244.61328125 68.61328125 244.61328125 71.03515625 243.58984375 C72.97060731 243.07269942 74.922579 242.6131662 76.88671875 242.21875 C79.5944325 241.73351756 79.5944325 241.73351756 81.796875 240.51953125 C84.34928288 239.24607183 85.94487698 239.81997187 88.61328125 240.61328125 C88.94328125 240.94328125 89.27328125 241.27328125 89.61328125 241.61328125 C96.34141707 242.21400766 100.71028588 240.75451807 106.61328125 237.61328125 C107.31453125 237.33226562 108.01578125 237.05125 108.73828125 236.76171875 C111.08413004 235.59825342 112.17736803 234.82512274 113.61328125 232.61328125 C114.72738343 226.02023821 114.71452985 219.05153744 111.92578125 212.86328125 C109.92164654 209.49885978 109.92164654 209.49885978 106.92578125 208.30078125 C104.61328125 206.61328125 104.61328125 206.61328125 104.14453125 204.171875 C104.00133802 202.25155145 103.90194118 200.32733955 103.8515625 198.40234375 C103.59918428 195.44827737 102.76649691 193.32402722 101.61328125 190.61328125 C101.61328125 188.11328125 101.61328125 188.11328125 102.61328125 185.61328125 C104.08481032 184.33369076 105.56222408 183.05693539 107.11328125 181.875 C109.23285647 180.09212813 110.41112016 178.08439017 111.61328125 175.61328125 C111.61328125 174.95328125 111.61328125 174.29328125 111.61328125 173.61328125 C113.37671875 173.76796875 113.37671875 173.76796875 115.17578125 173.92578125 C119.31029276 173.88932171 121.73116324 172.94812369 124.94140625 170.37109375 C129.26008168 165.83043034 133.06643235 159.95672849 133.61328125 153.61328125 C131.52427116 146.51293001 127.01087292 140.373788 120.61328125 136.61328125 C118.54788328 136.19904157 118.54788328 136.19904157 116.48828125 136.17578125 C112.61328125 135.61328125 112.61328125 135.61328125 110.953125 134.00390625 C109.9272998 132.60815431 108.94528396 131.17922347 108.0078125 129.72265625 C106.69302491 127.73390191 105.32304503 126.31641711 103.61328125 124.67578125 C101.61328125 121.61328125 101.61328125 121.61328125 101.75 119.59375 C102.12485619 118.07571537 102.54077569 116.5673675 102.9921875 115.0703125 C104.03245661 110.95503406 103.77169383 106.82881601 103.61328125 102.61328125 C104.22945313 102.48308594 104.845625 102.35289062 105.48046875 102.21875 C108.468915 101.37038156 109.66712249 100.01354372 111.61328125 97.61328125 C114.2133364 91.08488191 114.82105003 84.53946548 113.61328125 77.61328125 C111.42950369 74.58916397 108.94895357 73.18682278 105.61328125 71.61328125 C104.47890625 70.99453125 103.34453125 70.37578125 102.17578125 69.73828125 C97.09575021 68.13406092 92.00033997 67.41975189 87.11328125 69.86328125 C83.40965408 70.9743694 81.26175026 69.30994422 77.90625 67.640625 C74.77754811 66.23883863 72.01183747 65.90252008 68.61328125 65.61328125 C68.61328125 64.95328125 68.61328125 64.29328125 68.61328125 63.61328125 C67.95328125 63.61328125 67.29328125 63.61328125 66.61328125 63.61328125 C66.57460938 62.77796875 66.57460938 62.77796875 66.53515625 61.92578125 C66.20532946 57.48811166 65.61314092 54.24132883 63.36328125 50.36328125 C62.26953125 48.3828125 62.26953125 48.3828125 61.61328125 46.61328125 C62.86328125 44.05078125 62.86328125 44.05078125 64.61328125 41.61328125 C66.02265433 33.94002784 61.47068658 27.03612976 57.4296875 20.78125 C54.34277518 18.79633219 50.91330116 19.14240499 47.36328125 19.17578125 C46.62464844 19.15580078 45.88601563 19.13582031 45.125 19.11523438 C39.52183887 19.12017543 36.20199745 20.37938498 31.61328125 23.61328125 C30.12214771 26.20411075 30.12214771 26.20411075 29.61328125 28.61328125 C29.03320312 28.59007813 28.453125 28.566875 27.85546875 28.54296875 C22.93832741 28.42937143 19.27881588 28.9167232 14.61328125 30.61328125 C12.17578125 31.17578125 12.17578125 31.17578125 9.61328125 30.61328125 C7.70546122 28.96541822 6.02309241 27.20192798 4.32421875 25.33984375 C2.59854058 23.41392281 2.59854058 23.41392281 -0.26171875 22.17578125 C-0.96296875 21.66015625 -1.66421875 21.14453125 -2.38671875 20.61328125 C-2.55175468 18.69886445 -2.71351351 16.78401672 -2.84765625 14.8671875 C-4.21543353 9.14829266 -9.26523823 4.9411366 -14.0703125 1.93359375 C-24.22953265 -3.28609265 -29.88537684 1.09705768 -38.07421875 8.28125 Z " fill="#F6DEB7" transform="translate(272.38671875,95.38671875)"/>
<path d="M0 0 C4.57485713 3.7734223 8.01869544 7.40503666 8.88671875 13.4921875 C9.18741484 18.94116519 8.22816069 22.08619163 4.578125 26.328125 C-0.91945724 31.53636081 -6.49198003 32.8187315 -13.89453125 32.640625 C-19.51622237 31.94551636 -23.69722186 29.47214923 -27.359375 25.203125 C-30.24444372 21.18151406 -30.62756897 19.26478034 -30.421875 14.328125 C-30.091875 13.668125 -29.761875 13.008125 -29.421875 12.328125 C-28.431875 12.328125 -27.441875 12.328125 -26.421875 12.328125 C-26.195 13.58625 -25.968125 14.844375 -25.734375 16.140625 C-24.96409988 19.14204184 -24.61451055 20.14682095 -22.296875 22.328125 C-17.79431801 23.89423178 -13.66950787 24.0379038 -9.046875 22.578125 C-6.49729304 20.61690811 -5.57812298 18.32738531 -5.0859375 15.1796875 C-4.99024604 9.7252745 -5.49831221 6.43852411 -9.421875 2.328125 C-18.81480592 -3.34452886 -27.6195734 -4.72609201 -38.421875 -3.671875 C-44.40183405 -2.10588844 -49.98109033 1.07374544 -53.734375 6.078125 C-55.17296137 10.78622583 -54.91349754 14.88217635 -53.359375 19.453125 C-48.46950735 26.70905764 -41.38566873 30.14255095 -33.609375 33.703125 C-32.59907227 34.17717773 -31.58876953 34.65123047 -30.54785156 35.13964844 C-25.04656809 37.7073764 -19.50886693 40.17997625 -13.9387207 42.59399414 C0.5041165 48.86422319 15.82973629 56.74458683 22.5703125 71.82421875 C25.25385145 81.15419718 25.14255176 91.14996293 21.015625 100.015625 C19.31640625 102.85546875 19.31640625 102.85546875 17.578125 105.328125 C17.11792969 105.98941406 16.65773438 106.65070313 16.18359375 107.33203125 C7.90534173 117.09556332 -7.44757654 121.55760104 -19.421875 124.328125 C-20.54323853 124.58964355 -20.54323853 124.58964355 -21.68725586 124.85644531 C-44.12720685 128.72699127 -67.43853949 125.20475132 -86.60546875 112.9296875 C-93.32267723 107.75339767 -98.29074392 99.45874359 -100.421875 91.328125 C-101.43192452 79.99442983 -100.52398016 71.24711921 -93.296875 62.140625 C-86.6684125 55.01431661 -78.37023333 50.92046676 -68.6953125 49.95703125 C-56.92712171 49.75657109 -46.51400025 51.90160365 -37.13671875 59.59375 C-30.95706904 65.84378296 -27.44034145 72.79890484 -27.046875 81.578125 C-27.1941362 89.29881938 -29.80776003 96.86995767 -35.421875 102.328125 C-42.00007893 107.09868198 -46.62434346 108.48025037 -54.796875 108.578125 C-56.08335937 108.60390625 -57.36984375 108.6296875 -58.6953125 108.65625 C-63.69160641 108.21632475 -66.86635579 106.80192838 -70.50390625 103.35546875 C-71.36048828 102.32099609 -71.36048828 102.32099609 -72.234375 101.265625 C-72.81832031 100.57339844 -73.40226562 99.88117188 -74.00390625 99.16796875 C-76.80421378 95.53451187 -76.80196591 92.88921595 -76.421875 88.328125 C-73.80701284 83.38894092 -70.44717744 79.84077622 -65.421875 77.328125 C-58.95128676 76.97518382 -58.95128676 76.97518382 -55.421875 79.328125 C-55.421875 79.988125 -55.421875 80.648125 -55.421875 81.328125 C-57.030625 81.4209375 -57.030625 81.4209375 -58.671875 81.515625 C-62.44107635 82.03375469 -62.44107635 82.03375469 -64.859375 84.328125 C-67.54063803 89.47615002 -66.84624126 94.20629372 -65.734375 99.765625 C-64.63279185 102.42966362 -64.63279185 102.42966362 -62.359375 103.703125 C-56.94678929 104.85473898 -52.27563757 105.01470373 -47.046875 103.078125 C-43.33931112 100.60641575 -41.82234556 98.52953668 -40.421875 94.328125 C-40.24945792 91.89450028 -40.15521732 89.45491904 -40.109375 87.015625 C-40.07199219 85.72011719 -40.03460938 84.42460937 -39.99609375 83.08984375 C-40.64035589 77.39787639 -43.24703096 74.45188886 -47.296875 70.578125 C-54.16170376 65.63544829 -61.24602805 65.70768129 -69.421875 66.328125 C-75.16537092 67.35208699 -78.64738249 69.84285689 -82.16796875 74.45703125 C-86.68180472 81.19263071 -87.31032809 87.41281569 -86.421875 95.328125 C-84.70669533 102.51554459 -81.39401735 107.9506945 -75.421875 112.328125 C-61.55911459 120.68825767 -45.19486877 122.87239725 -29.24121094 119.92529297 C-25.36712354 118.8851956 -21.91727059 117.26830053 -18.421875 115.328125 C-17.57496094 114.88210938 -16.72804688 114.43609375 -15.85546875 113.9765625 C-9.99633385 110.52092775 -6.6877995 106.2214439 -3.421875 100.328125 C-2.803125 99.296875 -2.184375 98.265625 -1.546875 97.203125 C0.94581581 90.82959819 0.70874651 82.27922166 -1.1484375 75.7890625 C-2.09118832 73.80392054 -3.13227756 72.10452412 -4.421875 70.328125 C-5.1025 69.3175 -5.783125 68.306875 -6.484375 67.265625 C-15.16213467 57.53601567 -29.67363138 52.22727024 -41.52050781 47.39624023 C-54.392585 42.14256545 -66.90014168 36.71868318 -74.57421875 24.4921875 C-76.44272708 19.72189434 -75.92233727 14.34525929 -75.421875 9.328125 C-71.98443287 1.9244035 -64.91952034 -2.860258 -57.421875 -5.671875 C-39.24949914 -11.0957729 -16.09173563 -11.10848846 0 0 Z " fill="#F5F9BB" transform="translate(287.421875,188.671875)"/>
<path d="M0 0 C5.22677377 4.66171714 7.77901643 8.4803344 8.21484375 15.421875 C8.31116285 25.73872074 8.31116285 25.73872074 7 30 C7.61875 29.67 8.2375 29.34 8.875 29 C16.78942603 26.46738367 23.58557331 27.93765676 31.03515625 31.3125 C36.05077047 34.16723695 39.99469353 37.8840497 44 42 C44.52464844 42.49242187 45.04929687 42.98484375 45.58984375 43.4921875 C49.86130013 47.88049223 51.74103159 54.13026418 53 60 C52.6015625 62.3671875 52.6015625 62.3671875 52 64 C52 63.34 52 62.68 52 62 C50.2984375 62.0309375 50.2984375 62.0309375 48.5625 62.0625 C45 62 45 62 44 61 C44 59.4375 44 57.875 44 56.3125 C43.71351328 52.97492971 43.48156724 51.490522 41.109375 49.07421875 C34.28505371 44.52090504 28.22992746 42.15280158 20 43 C19.175 43.4125 18.35 43.825 17.5 44.25 C13.80241466 45.3592756 11.64833445 43.7573819 8.29296875 42.09375 C5.25830852 40.6462119 2.25137133 39.83013736 -1 39 C-1 38.34 -1 37.68 -1 37 C-1.66 37 -2.32 37 -3 37 C-3.09796875 36.443125 -3.1959375 35.88625 -3.296875 35.3125 C-4.13563779 31.0319175 -5.11984477 27.54191862 -7.3125 23.75 C-8.37890625 21.7578125 -8.37890625 21.7578125 -9 20 C-7.75 17.625 -7.75 17.625 -6 15 C-5.71546668 11.65285346 -5.82427257 8.35183803 -6 5 C-4.35 4.67 -2.7 4.34 -1 4 C-0.67 2.68 -0.34 1.36 0 0 Z " fill="#F6DEB7" transform="translate(342,122)"/>
<path d="M0 0 C4.57133726 1.77774227 7.21886918 4.63834163 10.375 8.3125 C9.65441406 8.87324219 8.93382812 9.43398437 8.19140625 10.01171875 C-4.069923 20.02825541 -10.51362288 29.63490319 -12.3125 45.5 C-12.4671875 47.3871875 -12.4671875 47.3871875 -12.625 49.3125 C-18.45181177 49.05860842 -22.36915528 48.70133987 -26.625 44.3125 C-28.39155856 40.77938288 -27.38498586 36.48789085 -27.07324219 32.61865234 C-26.82368244 29.49357874 -26.61344626 26.51881685 -26.7890625 23.3828125 C-26.88785723 20.57165343 -26.76525508 18.90000192 -25.625 16.3125 C-22.13441997 12.85290145 -18.37545019 10.11807301 -14.28027344 7.42138672 C-12.81762773 6.44154353 -11.40765695 5.38404881 -10.0078125 4.31640625 C-6.50506976 1.69237925 -4.42027187 0.38105792 0 0 Z " fill="#F3DBB5" transform="translate(112.625,140.6875)"/>
<path d="M0 0 C1.216875 0.433125 2.43375 0.86625 3.6875 1.3125 C17.6683726 5.90684335 27.4259235 6.92895621 41.3359375 1.9375 C43.55106628 1.15798254 45.71315636 0.52022983 48 0 C50.03072737 4.06145474 51.20781011 8.54039343 50 13 C46.02205781 18.09470055 40.8691488 20.33656117 35.0625 22.9375 C34.18142578 23.36095703 33.30035156 23.78441406 32.39257812 24.22070312 C25.91243846 27.15739563 25.91243846 27.15739563 21.875 26.4609375 C20.92625 25.97882813 19.9775 25.49671875 19 25 C17.69969414 24.47537458 16.39603932 23.9590033 15.08984375 23.44921875 C13.70450191 22.86488025 12.32040186 22.27758978 10.9375 21.6875 C10.24333984 21.40455078 9.54917969 21.12160156 8.83398438 20.83007812 C4.34537301 18.90760545 1.15679355 16.86100134 -2 13 C-2.61370235 8.17805298 -1.75408915 4.49485346 0 0 Z " fill="#F5DDB7" transform="translate(226,411)"/>
<path d="M0 0 C3.71397154 -0.24854494 5.26895234 0.19063869 8.29296875 2.42578125 C11.47539894 6.7314221 12.41796875 9.96760249 12.41796875 15.30078125 C11.07605469 15.44773437 11.07605469 15.44773437 9.70703125 15.59765625 C-4.78773194 17.3901856 -14.03858543 21.20957663 -23.54296875 32.6640625 C-24.9422068 34.51329025 -26.29109946 36.37487895 -27.58203125 38.30078125 C-28.71098001 37.36804016 -29.83504001 36.42938003 -30.95703125 35.48828125 C-31.58351562 34.96621094 -32.21 34.44414063 -32.85546875 33.90625 C-34.58203125 32.30078125 -34.58203125 32.30078125 -36.58203125 29.30078125 C-36.61625177 22.49945372 -33.28575246 18.29595731 -29.33203125 12.98828125 C-28.75839844 12.17810547 -28.18476563 11.36792969 -27.59375 10.53320312 C-23.57510937 5.03617876 -20.93680968 2.90937487 -14.09375 1.66796875 C-9.39984982 1.06385085 -4.70054424 0.54756718 0 0 Z " fill="#F6DEB7" transform="translate(177.58203125,84.69921875)"/>
<path d="M0 0 C3.49820973 0.51249291 3.49820973 0.51249291 7.21875 0.2265625 C16.66173643 -0.08884089 16.66173643 -0.08884089 20.01171875 2.71435547 C22.93973831 6.0242475 25.18292607 9.7092681 27.34692383 13.5480957 C28.51982976 15.52243989 29.82342326 17.33605316 31.19140625 19.1796875 C33.453125 22.41015625 33.453125 22.41015625 34.015625 25.47265625 C33.2853127 29.28650936 31.94662294 31.44491546 29.453125 34.41015625 C26.80859375 35.58203125 26.80859375 35.58203125 24.453125 36.41015625 C23.58300781 35.30607422 23.58300781 35.30607422 22.6953125 34.1796875 C21.91414063 33.20386719 21.13296875 32.22804687 20.328125 31.22265625 C19.56242187 30.25972656 18.79671875 29.29679687 18.0078125 28.3046875 C13.0788919 22.7200848 8.68702507 19.66250827 1.640625 17.66015625 C0.939375 17.45044189 0.238125 17.24072754 -0.484375 17.0246582 C-5.49920648 15.57571024 -10.32173881 14.69007426 -15.546875 14.41015625 C-14.91635385 9.56361311 -14.17021347 5.46983165 -11.671875 1.22265625 C-7.46451209 -1.21761424 -4.7254205 -0.69251852 0 0 Z " fill="#F4DCB6" transform="translate(325.546875,85.58984375)"/>
<path d="M0 0 C0.24234375 1.12277344 0.4846875 2.24554688 0.734375 3.40234375 C3.91538782 17.79003743 7.57371884 29.89382406 20.5625 38.625 C21.366875 39.07875 22.17125 39.5325 23 40 C22.02552263 43.50811852 21.07842969 44.93404776 18.25 47.3125 C14.57870156 49.21875111 13.07026526 49.50201579 9 49 C6.49474667 47.51870785 4.34124275 46.07984174 2.0625 44.3125 C1.48048828 43.87744141 0.89847656 43.44238281 0.29882812 42.99414062 C-0.88050147 42.11258195 -2.05089461 41.2189449 -3.2121582 40.3137207 C-4.98142455 38.96227085 -4.98142455 38.96227085 -6.94995117 37.87963867 C-9.73181812 36.22709041 -11.6126991 35.07344272 -12.73754883 31.95581055 C-13.14051404 29.51929457 -13.32807734 27.15430915 -13.4375 24.6875 C-13.50130859 23.87087891 -13.56511719 23.05425781 -13.63085938 22.21289062 C-13.8052391 19.80798349 -13.91537344 17.40960365 -14 15 C-14.03367676 14.24525391 -14.06735352 13.49050781 -14.10205078 12.71289062 C-14.2048151 8.93047287 -14.21772447 7.31297893 -12 4.125 C-8.37294784 1.55583805 -4.57362442 0 0 0 Z " fill="#F4DCB6" transform="translate(99,310)"/>
<path d="M0 0 C5.93869778 3.9161562 8.17985614 8.63417726 10.9375 15.0625 C11.34806641 15.96033203 11.75863281 16.85816406 12.18164062 17.78320312 C15.40831833 25.10172169 15.40831833 25.10172169 14 29 C12.67100727 32.40116974 11.1697272 35.72571012 9.6875 39.0625 C9.29626953 39.97322266 8.90503906 40.88394531 8.50195312 41.82226562 C8.11330078 42.69689453 7.72464844 43.57152344 7.32421875 44.47265625 C6.97447998 45.26937744 6.62474121 46.06609863 6.2644043 46.88696289 C4.81226354 49.31373992 3.38992657 50.51365008 1 52 C-1.21875 52.36328125 -1.21875 52.36328125 -3.5 52.3125 C-4.2528125 52.30863281 -5.005625 52.30476563 -5.78125 52.30078125 C-8.21060894 51.97144914 -9.88222715 51.20809315 -12 50 C-11.54166667 48.625 -11.08333333 47.25 -10.625 45.875 C-10.35171875 45.04484375 -10.0784375 44.2146875 -9.796875 43.359375 C-9.20211564 41.59842081 -8.55230247 39.85588409 -7.875 38.125 C-4.75967381 26.99883503 -6.10178923 17.15297129 -11.1953125 6.91015625 C-12 5 -12 5 -12 2 C-7.84398363 0.41675567 -4.44404269 -0.64808956 0 0 Z " fill="#F5DDB6" transform="translate(423,224)"/>
<path d="M0 0 C3.4375 1 3.4375 1 6 2 C5.3187262 5.879675 4.20380234 9.46121246 2.9375 13.1875 C-0.30402934 23.72838556 0.046256 35.12055274 5.1015625 45.1953125 C6 47 6 47 6 50 C3.03453308 51.48273346 0.28513219 52.25112635 -3 52.5 C-3.639375 52.5515625 -4.27875 52.603125 -4.9375 52.65625 C-9.02824534 51.35464921 -11.16289246 47.49990553 -13.16308594 43.91601562 C-14.29935422 41.63548421 -15.34774121 39.33153119 -16.375 37 C-16.74238281 36.21882813 -17.10976562 35.43765625 -17.48828125 34.6328125 C-19.98717612 29.03151607 -20.42196602 25.78658368 -18.21777344 19.91699219 C-17.26271951 17.54196368 -16.23682835 15.20980319 -15.1875 12.875 C-14.84396484 12.07707031 -14.50042969 11.27914062 -14.14648438 10.45703125 C-10.90577274 3.17303024 -8.66908319 -0.89680171 0 0 Z " fill="#F5DDB7" transform="translate(83,224)"/>
<path d="M0 0 C0.74185547 0.28746094 1.48371094 0.57492188 2.24804688 0.87109375 C6.90031546 2.76845707 10.23622548 4.72339689 13.4375 8.75 C14.64531011 13.20960657 13.46822737 17.68854526 11.4375 21.75 C10.83164062 21.55664062 10.22578125 21.36328125 9.6015625 21.1640625 C-4.19600025 16.87620454 -18.14714848 13.85415911 -31.6953125 20.8515625 C-33.5625 21.75 -33.5625 21.75 -36.5625 21.75 C-38.31550183 17.25793282 -39.26283085 13.56477459 -38.5625 8.75 C-34.11799834 4.35472541 -29.24177695 1.87725569 -23.5625 -0.625 C-22.78132812 -0.99238281 -22.00015625 -1.35976562 -21.1953125 -1.73828125 C-13.13362242 -5.33482649 -7.82871766 -3.21353476 0 0 Z " fill="#F5DDB7" transform="translate(262.5625,67.25)"/>
<path d="M0 0 C1.39968739 0.20431167 2.79482492 0.43986283 4.1875 0.6875 C4.96480469 0.81511719 5.74210937 0.94273437 6.54296875 1.07421875 C10.12822938 2.42510392 11.73362023 3.89736246 14 7 C14.48470577 10.15788616 14.20023659 13.14637103 13.875 16.3125 C13.7821875 17.53743164 13.7821875 17.53743164 13.6875 18.78710938 C13.55774352 20.41555319 13.40357704 22.0422433 13.22460938 23.66601562 C12.96395245 25.96531548 12.96395245 25.96531548 13.00976562 28.14648438 C12.93503669 31.25221877 12.47586636 33.45941524 10.40771484 35.80883789 C8.26471079 37.6353721 6.05922518 39.26426773 3.75 40.875 C2.98558594 41.4421875 2.22117187 42.009375 1.43359375 42.59375 C-7.35602414 49 -7.35602414 49 -13.4375 49 C-18.15664509 47.67532769 -19.80969326 45.6571809 -23 42 C-21.8673662 38.60209859 -21.29216307 38.28555728 -18.4375 36.375 C-7.05780806 28.03942673 -3.10076154 18.91983935 -0.75 5.25 C-0.48996124 3.50146351 -0.23607603 1.75193268 0 0 Z " fill="#F7DFB8" transform="translate(401,310)"/>
<path d="M0 0 C4.23394447 1.56812758 6.47032152 4.34601998 9 8 C9.64214566 12.52020179 8.73981565 15.04060486 6.10791016 18.74487305 C5.7010498 19.28281494 5.29418945 19.82075684 4.875 20.375 C1.52232859 24.78103281 1.52232859 24.78103281 -1.265625 29.55078125 C-2.62768751 32.17419039 -3.49723927 33.37647 -6 35 C-12.17384035 36.62824872 -18.6466421 36.82613753 -25 37 C-25.83329834 37.03150146 -26.66659668 37.06300293 -27.52514648 37.09545898 C-28.72699585 37.12361694 -28.72699585 37.12361694 -29.953125 37.15234375 C-30.67274414 37.17031006 -31.39236328 37.18827637 -32.13378906 37.20678711 C-34 37 -34 37 -36.4375 35.0625 C-38.43648803 31.14448346 -39.28499709 27.31824124 -40 23 C-39.20078125 22.91363281 -38.4015625 22.82726562 -37.578125 22.73828125 C-23.541106 20.94246544 -13.65726017 16.56262831 -4 6 C-2.5792255 4.04180713 -1.28919141 2.05017245 0 0 Z " fill="#F7DEB8" transform="translate(350,378)"/>
<path d="M0 0 C2.64187854 2.5663963 5.05463679 5.06757709 7.375 7.9375 C16.33866221 18.63340368 27.53480346 20.9491885 41 23 C40.41903453 28.92584777 39.23938937 32.76061063 35 37 C31.69033558 37.50235978 28.33320273 37.14936522 25 37 C24.31679687 37.00676758 23.63359375 37.01353516 22.9296875 37.02050781 C9.71741246 37.12984284 9.71741246 37.12984284 5.29052734 33.66015625 C2.25854163 30.36224156 0.03835429 26.63289171 -2.07177734 22.69873047 C-3.27159585 20.50295531 -4.69566585 18.48896858 -6.125 16.4375 C-8.92957746 11.29577465 -8.92957746 11.29577465 -8 8 C-5.77437176 4.84082556 -3.49761068 1.74880534 0 0 Z " fill="#F6DEB7" transform="translate(149,378)"/>
<path d="M0 0 C2.28351686 1.27948027 4.36932947 2.6951613 6.484375 4.23828125 C9.00120158 6.08151446 9.00120158 6.08151446 11.953125 7.54296875 C19.20784538 11.69259284 19.20784538 11.69259284 20.67773438 15.97412109 C21.7798055 21.27173514 21.96088226 26.60462797 22 32 C22.02352539 32.81428467 22.04705078 33.62856934 22.07128906 34.4675293 C22.08772461 35.26457275 22.10416016 36.06161621 22.12109375 36.8828125 C22.13712646 37.60227051 22.15315918 38.32172852 22.16967773 39.06298828 C21.88010469 42.36870415 20.44035998 43.88074002 18 46 C14.33965813 47.60139957 12.02927167 48 8 48 C7.82984375 46.94941406 7.6596875 45.89882812 7.484375 44.81640625 C4.96586385 29.91491927 0.78065505 19.11580668 -12.0625 9.875 C-13.031875 9.25625 -14.00125 8.6375 -15 8 C-12.29679508 1.11911475 -6.95109322 -1.8957527 0 0 Z " fill="#F6DEB8" transform="translate(393,142)"/>
<path d="M0 0 C0.66 0 1.32 0 2 0 C2.3125 3.25 2.3125 3.25 2 7 C-1.58334194 10.63672506 -4.80140469 11.73627001 -9.75 12.6875 C-10.97460938 12.9246875 -12.19921875 13.161875 -13.4609375 13.40625 C-17.6409095 14.10752565 -21.77788758 14.63602479 -26 15 C-25.25234375 15.54269531 -24.5046875 16.08539063 -23.734375 16.64453125 C-22.74953125 17.35996094 -21.7646875 18.07539063 -20.75 18.8125 C-19.77546875 19.52019531 -18.8009375 20.22789062 -17.796875 20.95703125 C-16.87390625 21.63121094 -15.9509375 22.30539062 -15 23 C-14.22140625 23.54011719 -13.4428125 24.08023437 -12.640625 24.63671875 C-12.09921875 25.08660156 -11.5578125 25.53648437 -11 26 C-11 26.66 -11 27.32 -11 28 C-10.01 28.33 -9.02 28.66 -8 29 C-6 32 -6 32 -6.25 35 C-7 38 -7 38 -9 41 C-9.66 41 -10.32 41 -11 41 C-11.37125 39.9275 -11.7425 38.855 -12.125 37.75 C-13.93230805 33.64625008 -15.88658194 31.98325514 -20 30 C-23.64273091 29.12193126 -27.28801291 28.5019769 -31 28 C-31.10957031 27.40832031 -31.21914063 26.81664062 -31.33203125 26.20703125 C-32.27179871 21.52347471 -33.37809665 18.05203244 -36 14 C-36 13.01 -36 12.02 -36 11 C-34.02866014 9.62464661 -32.02318078 8.29788956 -30 7 C-28.700625 5.63875 -28.700625 5.63875 -27.375 4.25 C-25 2 -25 2 -21 2 C-20.278125 2.33 -19.55625 2.66 -18.8125 3 C-13.51073521 4.88507193 -8.68128705 4.69052861 -3.5 2.5625 C-1.14756405 1.22251722 -1.14756405 1.22251722 0 0 Z " fill="#F3DCB6" transform="translate(431,277)"/>
<path d="M0 0 C2.0625 2.125 2.0625 2.125 4 5 C3.91475404 8.9053305 3.33497215 10.60851234 0.77734375 13.59765625 C-0.15980469 14.41105469 -1.09695313 15.22445312 -2.0625 16.0625 C-2.98160156 16.87847656 -3.90070313 17.69445312 -4.84765625 18.53515625 C-8.3286602 21.39015486 -12.14076662 23.6959527 -16 26 C-14.70964844 26.18175781 -13.41929687 26.36351562 -12.08984375 26.55078125 C-10.37232179 26.80418613 -8.65487789 27.05812052 -6.9375 27.3125 C-6.08994141 27.43044922 -5.24238281 27.54839844 -4.36914062 27.66992188 C1.64158611 28.575012 7.5461292 29.5461292 12 34 C12.125 37.625 12.125 37.625 12 41 C7 39 7 39 4.625 37.875 C-2.06286301 35.64571233 -7.70094331 37.60035936 -14 40 C-14.44730469 39.52949219 -14.89460938 39.05898437 -15.35546875 38.57421875 C-18.68117905 35.14923351 -21.70750866 32.21128342 -26 30 C-25.36515933 27.98967123 -24.6872487 25.99302124 -24 24 C-23.81308594 23.18015625 -23.62617188 22.3603125 -23.43359375 21.515625 C-22.60046832 18.56697165 -21.82511328 16.4763274 -20 14 C-16.73280531 12.55077191 -13.55187829 11.74747556 -10.078125 10.921875 C-4.79396886 9.33931047 -3.28485001 6.32496668 -0.6875 1.625 C-0.460625 1.08875 -0.23375 0.5525 0 0 Z " fill="#F4DDB6" transform="translate(421,182)"/>
<path d="M0 0 C2 3 2 3 3.1875 5.4375 C5.53379264 8.75467235 8.27204487 10.53314625 12 12 C13.56083316 12.18161465 15.12350696 12.34798091 16.6875 12.5 C18.984375 12.9140625 18.984375 12.9140625 21 14 C22.55999855 16.97100847 23.42007787 19.80648979 24.24609375 23.0546875 C24.90797442 25.64048037 25.70694781 27.68258179 27 30 C25.22970554 31.29240512 23.45874502 32.58389793 21.6875 33.875 C20.70136719 34.59429687 19.71523437 35.31359375 18.69921875 36.0546875 C16.82476885 37.4055935 14.92247007 38.71835329 13 40 C11.31794146 39.37318161 9.65321964 38.69934759 8 38 C-0.78064327 37.03646352 -0.78064327 37.03646352 -8.8125 40 C-9.534375 40.66 -10.25625 41.32 -11 42 C-11 39.03 -11 36.06 -11 33 C-3.68854197 29.15838646 2.12779631 27.88367241 10.3125 27.4375 C11.05306641 27.39431641 11.79363281 27.35113281 12.55664062 27.30664062 C14.37091464 27.20129568 16.1854355 27.10021684 18 27 C17.31035156 26.5875 16.62070313 26.175 15.91015625 25.75 C-0.01980198 15.96039604 -0.01980198 15.96039604 -3 10 C-3.30343947 6.51044604 -3.39470082 4.62494296 -1.5 1.625 C-1.005 1.08875 -0.51 0.5525 0 0 Z " fill="#F5DDB7" transform="translate(79,182)"/>
<path d="M0 0 C8.91 1.485 8.91 1.485 18 3 C20.89143866 18.54148279 20.89143866 18.54148279 18.421875 22.58203125 C16.36461718 24.28037898 14.27413481 25.61612726 12 27 C9.81005752 30.28491373 9.64722661 31.83095639 9.375 35.6875 C9.30023438 36.68136719 9.22546875 37.67523438 9.1484375 38.69921875 C9.09945312 39.45847656 9.05046875 40.21773438 9 41 C6.625 40.6875 6.625 40.6875 4 40 C1.48919576 36.23379364 1.64458719 34.47727823 2 30 C2.84569965 27.34521471 3.71988054 24.91669632 4.8125 22.375 C5.07353516 21.73304688 5.33457031 21.09109375 5.60351562 20.4296875 C7.12830358 16.75513678 8.86112584 13.35282977 11 10 C9.87980469 10.49371094 8.75960937 10.98742187 7.60546875 11.49609375 C6.13284305 12.14329868 4.66018511 12.79043027 3.1875 13.4375 C2.44951172 13.76298828 1.71152344 14.08847656 0.95117188 14.42382812 C0.23896484 14.73642578 -0.47324219 15.04902344 -1.20703125 15.37109375 C-2.18893433 15.8031311 -2.18893433 15.8031311 -3.19067383 16.24389648 C-8.08317859 18.28843666 -12.75209413 18.81280697 -18 18 C-20.18182341 15.56149148 -21 14.2678851 -21 11 C-20.43152344 11.04640625 -19.86304687 11.0928125 -19.27734375 11.140625 C-11.98848168 11.48133975 -8.18674863 9.7674396 -2.625 4.9375 C-0.79458995 2.99601066 -0.79458995 2.99601066 0 0 Z " fill="#F5DDB7" transform="translate(127,353)"/>
<path d="M0 0 C0.94875 0.66 1.8975 1.32 2.875 2 C7.50934973 4.63081267 11.7921756 4.70463565 17 4 C19.82425067 3.20154464 22.30663742 2.19705004 25 1 C25.77923828 1.81404297 25.77923828 1.81404297 26.57421875 2.64453125 C31.75654302 7.99529043 31.75654302 7.99529043 38 12 C37.38125 13.155 36.7625 14.31 36.125 15.5 C34.05877782 19.60313625 32.96064282 23.51700017 32 28 C31.03900391 28.14695312 31.03900391 28.14695312 30.05859375 28.296875 C24.23915956 29.30291727 19.70789641 30.34897829 15 34 C13.57405073 36.65837685 12.8307783 39.06784128 12 42 C9.28480301 39.40285505 8.10481653 37.99235386 7.69921875 34.15234375 C8.16448355 29.27612695 10.8196174 27.49530372 14.265625 24.2578125 C18.56414651 20.70846188 23.1871531 17.79774839 28 15 C26.44152344 14.83564453 26.44152344 14.83564453 24.8515625 14.66796875 C4.38949522 12.38949522 4.38949522 12.38949522 0 8 C-0.26991906 5.31160615 -0.08737357 2.70858064 0 0 Z " fill="#F7DEB8" transform="translate(68,277)"/>
<path d="M0 0 C2.68737154 0.53747431 4.84488065 1.37550251 7.375 2.5 C10.67343326 3.86486893 13.47684707 4.5703472 17 5 C17.14695312 6.08667969 17.14695312 6.08667969 17.296875 7.1953125 C18.3543039 14.03213727 19.5755731 19.09442566 25.0625 23.75 C25.701875 24.1625 26.34125 24.575 27 25 C27.99 25.66 28.98 26.32 30 27 C27.8648417 28.89791849 26.38352847 29.92132749 23.5625 30.5 C19.91187455 29.78768284 18.33071375 27.70036996 16 25 C15.03320312 23.96552734 15.03320312 23.96552734 14.046875 22.91015625 C9.99223367 18.51762814 6.71941728 14.3255255 4 9 C3.89042969 9.95519531 3.78085937 10.91039062 3.66796875 11.89453125 C1.18424293 32.14800281 1.18424293 32.14800281 -2.3671875 36.78515625 C-5.04353616 38.77641088 -7.79006776 38.18169428 -11 38 C-10.71125 37.443125 -10.4225 36.88625 -10.125 36.3125 C-9.75375 35.549375 -9.3825 34.78625 -9 34 C-8.62875 33.278125 -8.2575 32.55625 -7.875 31.8125 C-6.211391 26.46518537 -6.25806158 21.70027553 -8.5 16.5625 C-8.995 15.716875 -9.49 14.87125 -10 14 C-10 13.34 -10 12.68 -10 12 C-8.53492043 10.8345958 -7.06948783 9.66963018 -5.6015625 8.5078125 C-2.98567477 6.04504991 -1.62335857 3.18428027 0 0 Z " fill="#F5DDB7" transform="translate(288,395)"/>
<path d="M0 0 C5.95703125 -0.390625 5.95703125 -0.390625 8 0 C11.3308574 3.14276193 11.81186093 6.80459105 12.625 11.1875 C12.81219604 12.18245483 12.81219604 12.18245483 13.00317383 13.19750977 C13.90595193 18.11875865 14.5629838 23.01801531 15 28 C15.4846875 27.2265625 15.969375 26.453125 16.46875 25.65625 C27.27906977 8.85867621 27.27906977 8.85867621 34.25 7.25 C37.52109397 8.14211654 38.88306577 9.39454248 41 12 C39.9275 12.37125 38.855 12.7425 37.75 13.125 C33.64625008 14.93230805 31.98325514 16.88658194 30 21 C29.12193126 24.64273091 28.5019769 28.28801291 28 32 C27.33613281 32.18175781 26.67226563 32.36351562 25.98828125 32.55078125 C21.22425934 33.90696267 17.17463694 35.26039451 13 38 C12.34 38 11.68 38 11 38 C9.6328125 36.20703125 9.6328125 36.20703125 8.125 33.8125 C5.91381402 30.37649041 3.62995307 27.13571327 1 24 C1.495 23.05125 1.99 22.1025 2.5 21.125 C4.47187648 16.46420104 4.75690439 11.98760156 4 7 C2.91139924 4.35154274 1.6492456 2.37079054 0 0 Z " fill="#F6DEB8" transform="translate(277,68)"/>
<path d="M0 0 C1.12828023 2.25656047 1.12934479 3.68390441 1.25 6.1875 C1.75904753 11.12685184 3.44084834 14.53072591 7 18 C8.65 18.99 10.3 19.98 12 21 C11.34 26.94 10.68 32.88 10 39 C8.14375 39.144375 6.2875 39.28875 4.375 39.4375 C0.20525253 39.78251457 -3.88814936 40.20047349 -8 41 C-8.804375 39.63875 -8.804375 39.63875 -9.625 38.25 C-12.35145594 34.23156493 -15.41601631 31.51853973 -20.31640625 30.53515625 C-23.21995395 30.19493317 -26.07712319 30 -29 30 C-27.92598892 27.08482708 -27.22189824 25.22189824 -25 23 C-15.11330811 22.17610901 -5.19897348 26.72923134 3 32 C2.60167969 31.2265625 2.20335937 30.453125 1.79296875 29.65625 C-7.19729425 11.98196167 -7.19729425 11.98196167 -6 4 C-3 1.5 -3 1.5 0 0 Z " fill="#F6DEB7" transform="translate(135,106)"/>
<path d="M0 0 C0.721875 1.0725 1.44375 2.145 2.1875 3.25 C4.85570808 7.08506293 7.50741227 9.53791524 12 11 C15.03560746 11.29533023 17.96296512 11.24792121 21 11 C20.25 15.75 20.25 15.75 18 18 C7.80179208 19.38280785 -2.51876133 14.38979481 -11 9 C-10.15115234 10.64548828 -10.15115234 10.64548828 -9.28515625 12.32421875 C-8.54395074 13.77848273 -7.80308305 15.23291893 -7.0625 16.6875 C-6.68931641 17.40873047 -6.31613281 18.12996094 -5.93164062 18.87304688 C-4.0585949 22.56851547 -2.50925895 25.83862683 -2 30 C-1.89816406 30.69222656 -1.79632813 31.38445312 -1.69140625 32.09765625 C-1.5625 34.0625 -1.5625 34.0625 -2 38 C-5 40.5 -5 40.5 -8 42 C-8.7650446 39.51360505 -8.98396928 37.75419557 -8.8125 35.125 C-9.10149336 30.30844394 -11.35817157 27.53987335 -14.82421875 24.2890625 C-16.52260486 22.82149154 -18.24067131 21.39362553 -20 20 C-19.5359375 18.2984375 -19.5359375 18.2984375 -19.0625 16.5625 C-17.93068767 12.07538586 -17.40488706 7.60292653 -17 3 C-15.75283203 2.80083984 -15.75283203 2.80083984 -14.48046875 2.59765625 C-13.39378906 2.42105469 -12.30710937 2.24445313 -11.1875 2.0625 C-10.10855469 1.88847656 -9.02960938 1.71445312 -7.91796875 1.53515625 C-5.19668293 1.0360717 -2.75778676 0 0 0 Z " fill="#F6DEB7" transform="translate(373,353)"/>
<path d="M0 0 C-0.3609375 0.4846875 -0.721875 0.969375 -1.09375 1.46875 C-4.40966628 6.25840685 -6.05670385 10.08906284 -5 16 C-4.15773282 19.06757536 -3.15269447 22.0359285 -2 25 C-2.83144531 25.90492187 -2.83144531 25.90492187 -3.6796875 26.828125 C-4.40414062 27.62734375 -5.12859375 28.4265625 -5.875 29.25 C-6.59429687 30.03890625 -7.31359375 30.8278125 -8.0546875 31.640625 C-9.76935483 33.72026168 -10.92980873 35.54419267 -12 38 C-12.70769531 37.70222656 -13.41539062 37.40445313 -14.14453125 37.09765625 C-16.96213141 35.95669374 -16.96213141 35.95669374 -19.82421875 35.24609375 C-22.79150256 34.40812956 -25.33000338 33.55130737 -28 32 C-29.11944195 29.73881645 -29.36039817 27.88207027 -29.63671875 25.3828125 C-30.26229214 21.27958917 -32.23420217 18.052409 -35 15 C-37.33637315 13.55552033 -39.35022741 12.8313012 -42 12 C-39.76726097 9.2520135 -38.60907583 8.10367248 -35.0625 7.5 C-28.99977008 8.48983346 -25.84623428 13.20779419 -22.375 17.9375 C-21.61960938 18.95714844 -20.86421875 19.97679688 -20.0859375 21.02734375 C-18.26077391 23.62837276 -16.58982958 26.25070871 -15 29 C-14.96261719 27.96101563 -14.92523438 26.92203125 -14.88671875 25.8515625 C-14.05849526 6.99476933 -14.05849526 6.99476933 -9.66015625 1.25 C-6.68594405 -0.98940683 -3.60325657 -0.17720934 0 0 Z " fill="#F8DFB8" transform="translate(224,68)"/>
<path d="M0 0 C2.91517292 1.07401108 4.77810176 1.77810176 7 4 C8.27812252 12.23678955 4.9681214 18.34496844 1.53125 25.62109375 C-0.13759044 28.68533138 -0.13759044 28.68533138 0 31 C0.95519531 30.50628906 1.91039062 30.01257813 2.89453125 29.50390625 C18.16564715 21.84457386 18.16564715 21.84457386 26 23 C28.63476952 25.05969733 29.43489436 26.72238731 30 30 C28.824375 29.9175 27.64875 29.835 26.4375 29.75 C21.87444283 29.77414316 18.53820501 31.13809525 15 34 C12.84444742 36.22217009 10.88326289 38.54417 9 41 C8.35933594 40.86722656 7.71867187 40.73445313 7.05859375 40.59765625 C2.05016007 39.57506994 -2.93111794 38.66115853 -8 38 C-8.13277344 37.10796875 -8.26554687 36.2159375 -8.40234375 35.296875 C-8.57894531 34.12640625 -8.75554687 32.9559375 -8.9375 31.75 C-9.11152344 30.58984375 -9.28554688 29.4296875 -9.46484375 28.234375 C-9.8727736 25.76893039 -10.33901303 23.40575438 -11 21 C-10.2575 20.608125 -9.515 20.21625 -8.75 19.8125 C-4.2739796 16.86239565 -1.44347871 13.17246538 0 8 C0.15065555 5.30828754 0.09153716 2.70034619 0 0 Z " fill="#F9E0B9" transform="translate(364,106)"/>
<path d="M0 0 C1.5 1.7421875 1.5 1.7421875 3 3.875 C4.84615953 6.48077725 6.67801932 8.80241115 9 11 C8.7834375 11.72445313 8.566875 12.44890625 8.34375 13.1953125 C5.92724903 21.58594088 4.89844919 26.62420788 9.125 34.4609375 C9.558125 35.22277344 9.558125 35.22277344 10 36 C7.36 36 4.72 36 2 36 C-1.38762253 29.48847997 -2.73657588 23.72705291 -3.25 16.4375 C-3.32734375 15.52419922 -3.4046875 14.61089844 -3.484375 13.66992188 C-3.67055843 11.44735714 -3.84216794 9.22472634 -4 7 C-4.60134766 8.01707031 -4.60134766 8.01707031 -5.21484375 9.0546875 C-16.09854164 26.87334935 -16.09854164 26.87334935 -23.09765625 28.89453125 C-26 29 -26 29 -28.875 27.0625 C-29.57625 26.381875 -30.2775 25.70125 -31 25 C-30.46890625 24.79246094 -29.9378125 24.58492188 -29.390625 24.37109375 C-24.81314683 22.37471185 -22.06332022 20.60523842 -19.6875 15.9921875 C-18.91922475 13.76593537 -18.81423251 11.77925228 -18.625 9.4375 C-18.22265625 7.16015625 -18.22265625 7.16015625 -17 5 C-12.12456355 1.97491646 -5.68708414 -1.89569471 0 0 Z " fill="#F7DFB8" transform="translate(213,396)"/>
<path d="M0 0 C1 1 1 1 1.1875 3.4375 C1 6 1 6 -1 8 C-3.24952678 8.04614414 -5.50032039 8.03796928 -7.75 8 C-11.54476649 8.06823362 -11.54476649 8.06823362 -15 9 C-17.1834173 11.44203567 -18.33244014 13.77301883 -19.703125 16.734375 C-21 19 -21 19 -24.6875 20.25 C-28 20 -28 20 -31 18 C-28.61267618 10.46037281 -21.87926825 5.08206387 -15.07421875 1.4296875 C-9.6935371 -0.69877025 -5.60558289 -1.58418647 0 0 Z " fill="#EDD6B1" transform="translate(187,107)"/>
<path d="M0 0 C2.26274788 0.35355436 3.95088852 0.97544426 6 2 C6.10030219 4.22729872 6.12965946 6.45794883 6.125 8.6875 C6.32931398 13.79978139 6.32931398 13.79978139 8.62890625 18.19140625 C12.39631038 21.04376725 16.40301632 22.85075408 21 24 C20.01 24.33 19.02 24.66 18 25 C17.67 26.65 17.34 28.3 17 30 C14.78515625 30.74609375 14.78515625 30.74609375 12 31 C5.86826872 26.79154362 1.73703682 20.81251472 -1 14 C-1.433125 13.154375 -1.86625 12.30875 -2.3125 11.4375 C-3.27330216 8.0310196 -2.77407821 5.41884543 -2 2 C-1.34 1.34 -0.68 0.68 0 0 Z " fill="#EBD5B1" transform="translate(109,312)"/>
<path d="M0 0 C11.08584406 2.33202999 17.10148724 6.55753565 24.80078125 14.8984375 C24.14078125 16.8784375 23.48078125 18.8584375 22.80078125 20.8984375 C20.17578125 21.5234375 20.17578125 21.5234375 16.80078125 20.8984375 C14.38364781 17.78116886 12.62938232 14.38290534 10.80078125 10.8984375 C8.41553948 8.51319573 2.25444575 9.49990164 -0.9765625 9.375 C-2.57177734 9.13910156 -2.57177734 9.13910156 -4.19921875 8.8984375 C-6.19921875 5.8984375 -6.19921875 5.8984375 -6.01171875 3.8359375 C-4.78463438 0.90981323 -3.16372424 -0.14610449 0 0 Z " fill="#F1DAB4" transform="translate(318.19921875,106.1015625)"/>
<path d="M0 0 C0.33 1.98 0.66 3.96 1 6 C0.38511719 6.33773437 -0.22976562 6.67546875 -0.86328125 7.0234375 C-1.67152344 7.46945313 -2.47976562 7.91546875 -3.3125 8.375 C-4.11300781 8.81585938 -4.91351563 9.25671875 -5.73828125 9.7109375 C-7.53527943 10.73513335 -9.27900708 11.85267138 -11 13 C-11.38411275 15.609621 -11.60293197 18.0058074 -11.6875 20.625 C-11.72166016 21.33140625 -11.75582031 22.0378125 -11.79101562 22.765625 C-11.87351308 24.50985688 -11.93843335 26.25490395 -12 28 C-14.31 28.33 -16.62 28.66 -19 29 C-20.76497615 26.40444684 -20.99969328 24.9921786 -20.875 21.8125 C-18.56035228 11.72724924 -11.88153502 -0.64224514 0 0 Z " fill="#EDD7B2" transform="translate(127,159)"/>
<path d="M0 0 C1.65 0.33 3.3 0.66 5 1 C7.08990379 6.8778544 8.09659982 12.78593434 7 19 C3.22194751 22.87492563 -2.66767748 24.96262089 -8 26 C-10.2734375 25.57421875 -10.2734375 25.57421875 -12 25 C-11.80859375 22.64453125 -11.80859375 22.64453125 -11 20 C-8.78515625 18.63671875 -8.78515625 18.63671875 -6.0625 17.6875 C-5.16660156 17.36136719 -4.27070313 17.03523438 -3.34765625 16.69921875 C-1 16 -1 16 1 16 C0.84402344 15.26394531 0.68804687 14.52789062 0.52734375 13.76953125 C0.33269531 12.79371094 0.13804687 11.81789063 -0.0625 10.8125 C-0.25972656 9.84957031 -0.45695312 8.88664062 -0.66015625 7.89453125 C-1.00423947 4.96389138 -0.74164697 2.83692932 0 0 Z " fill="#2A3E3A" transform="translate(402,323)"/>
<path d="M0 0 C-2.1385485 2.1385485 -3.13275314 2.42655063 -6 3 C-5.67 4.65 -5.34 6.3 -5 8 C-5.79664063 7.54367188 -6.59328125 7.08734375 -7.4140625 6.6171875 C-8.47367187 6.04226562 -9.53328125 5.46734375 -10.625 4.875 C-11.66914063 4.29492188 -12.71328125 3.71484375 -13.7890625 3.1171875 C-17.75414354 1.73760943 -19.2477733 2.26820306 -23 4 C-25.08305128 5.0210275 -25.08305128 5.0210275 -26.875 6.125 C-27.90625 6.74375 -28.9375 7.3625 -30 8 C-30.99 7.34 -31.98 6.68 -33 6 C-31.68 6 -30.36 6 -29 6 C-29.33 4.68 -29.66 3.36 -30 2 C-32.97 1.505 -32.97 1.505 -36 1 C-24.75470439 -6.49686374 -11.84448969 -5.22276711 0 0 Z " fill="#F1DAB4" transform="translate(268,93)"/>
<path d="M0 0 C4.62649434 0.10186777 8.97330198 1.09261533 13.4375 2.25 C13.81968767 3.90614657 14.15145102 5.57457024 14.4375 7.25 C14.1075 7.58 13.7775 7.91 13.4375 8.25 C11.08055046 8.15968426 8.72596418 8.00311872 6.375 7.8125 C5.08464844 7.71066406 3.79429687 7.60882813 2.46484375 7.50390625 C0.96630859 7.37822266 0.96630859 7.37822266 -0.5625 7.25 C-2.2125 11.21 -3.8625 15.17 -5.5625 19.25 C-7.2125 19.25 -8.8625 19.25 -10.5625 19.25 C-10.22559209 11.97278923 -8.82161339 0.61906059 0 0 Z " fill="#2A3E3A" transform="translate(162.5625,90.75)"/>
<path d="M0 0 C1.67542976 0.28604898 3.34385343 0.61781233 5 1 C3.92587271 7.10556566 2.42549788 12.75470637 -1 18 C-6.70390368 20.85195184 -14.15334286 18.5158 -20 17 C-20.625 15.125 -20.625 15.125 -21 13 C-20.34 12.34 -19.68 11.68 -19 11 C-16.99279077 11.28674418 -14.99369031 11.63079809 -13 12 C-10.32602531 12.09137683 -7.67670434 12.04615007 -5 12 C-4.72285156 11.21753906 -4.44570313 10.43507813 -4.16015625 9.62890625 C-3.79792969 8.61699219 -3.43570312 7.60507812 -3.0625 6.5625 C-2.70285156 5.55316406 -2.34320313 4.54382813 -1.97265625 3.50390625 C-1 1 -1 1 0 0 Z " fill="#273C38" transform="translate(344,390)"/>
<path d="M0 0 C1.65 0 3.3 0 5 0 C5.67057887 1.7902061 6.3363469 3.58221489 7 5.375 C7.556875 6.87160156 7.556875 6.87160156 8.125 8.3984375 C9 11 9 11 9 13 C9.66386719 12.855625 10.32773438 12.71125 11.01171875 12.5625 C11.89472656 12.376875 12.77773437 12.19125 13.6875 12 C14.55761719 11.814375 15.42773438 11.62875 16.32421875 11.4375 C18.93712964 11.01027953 21.35813038 10.92383799 24 11 C24.33 12.65 24.66 14.3 25 16 C19.70164257 19.53223829 13.24645772 19.8999134 7 19 C2.72387995 15.60103278 1.26611558 10.18638456 0 5 C-0.1875 1.9375 -0.1875 1.9375 0 0 Z " fill="#273C38" transform="translate(152,390)"/>
<path d="M0 0 C2.6875 0.3125 2.6875 0.3125 5 1 C4.41795291 4.41019899 3.29078344 6.00486226 0.875 8.4375 C-1.52539617 11.08157715 -1.52539617 11.08157715 -2.25 14.5 C-0.69761108 17.60477785 1.37194429 19.81117944 3.8203125 22.25390625 C5 24 5 24 4.6796875 26.21484375 C4.45539063 26.80394531 4.23109375 27.39304687 4 28 C0 28 0 28 -1.8515625 26.609375 C-2.43679687 25.99578125 -3.02203125 25.3821875 -3.625 24.75 C-4.21539062 24.14671875 -4.80578125 23.5434375 -5.4140625 22.921875 C-7.71324613 20.13567218 -8.85419142 17.8019472 -9.5 14.25 C-8.7673983 9.48808895 -6.12114552 6.56159915 -3 3 C-2.4946875 2.41992188 -1.989375 1.83984375 -1.46875 1.2421875 C-0.9840625 0.83226562 -0.499375 0.42234375 0 0 Z " fill="#273C38" transform="translate(77,236)"/>
<path d="M0 0 C2.7734375 2.1640625 2.7734375 2.1640625 5.375 4.625 C6.68597656 5.85089844 6.68597656 5.85089844 8.0234375 7.1015625 C8.67570312 7.72804688 9.32796875 8.35453125 10 9 C9.34 10.32 8.68 11.64 8 13 C4.69882723 11.93197352 2.50399286 10.64783013 0 8.3125 C-2.69325919 5.79966736 -2.69325919 5.79966736 -5.4375 5.8125 C-8.62826513 7.29114726 -10.78213016 9.34282792 -13.25390625 11.8203125 C-15 13 -15 13 -17.21484375 12.6796875 C-18.09849609 12.34324219 -18.09849609 12.34324219 -19 12 C-18.51077907 7.75765137 -17.46375972 6.01738975 -14.1875 3.3125 C-13.15689453 2.44044922 -13.15689453 2.44044922 -12.10546875 1.55078125 C-7.41493913 -1.90402442 -5.5530886 -2.54457984 0 0 Z " fill="#273B38" transform="translate(255,69)"/>
<path d="M0 0 C1.65 0.33 3.3 0.66 5 1 C4.38487182 6.00890086 3.7282448 11.00632136 3 16 C4.03060547 16.29003906 4.03060547 16.29003906 5.08203125 16.5859375 C5.98308594 16.84632813 6.88414063 17.10671875 7.8125 17.375 C9.15248047 17.75785156 9.15248047 17.75785156 10.51953125 18.1484375 C13 19 13 19 16 21 C15.67 22.65 15.34 24.3 15 26 C8.89760477 24.94834005 4.16044988 23.47540502 -1 20 C-3.50044819 16.24932771 -3.51454013 13.34003413 -3 9 C-2.17679958 5.92608399 -1.15296453 2.96476593 0 0 Z " fill="#273C38" transform="translate(94,323)"/>
<path d="M0 0 C3.13837611 -0.3077917 4.59343628 -0.27813784 7.23828125 1.53125 C7.92277344 2.1809375 8.60726562 2.830625 9.3125 3.5 C10.00988281 4.1496875 10.70726562 4.799375 11.42578125 5.46875 C11.94527344 5.9740625 12.46476563 6.479375 13 7 C16.38487723 5.93618144 18.01134208 4.98809081 20.5 2.375 C23 0 23 0 25.8125 -0.3125 C26.534375 -0.209375 27.25625 -0.10625 28 0 C28.33 1.32 28.66 2.64 29 4 C27.30425586 5.49358247 25.59280776 6.96934697 23.875 8.4375 C22.92367188 9.26121094 21.97234375 10.08492188 20.9921875 10.93359375 C17.77052432 13.15847603 15.89833847 13.9367837 12 14 C9.8046875 12.92578125 9.8046875 12.92578125 7.875 11.3125 C7.20210937 10.75433594 6.52921875 10.19617188 5.8359375 9.62109375 C5.23007813 9.08613281 4.62421875 8.55117188 4 8 C3.175 7.29875 2.35 6.5975 1.5 5.875 C0 4 0 4 0 0 Z " fill="#273B38" transform="translate(236,419)"/>
<path d="M0 0 C5.66439719 0.60407033 7.79863224 3.45025677 11.3125 7.65625 C13.42004863 10.58340087 14.32287061 12.36770568 14 16 C11.41614279 20.85765156 7.64075955 24.89807758 4 29 C2.68 28.67 1.36 28.34 0 28 C0.29123499 22.02968261 3.02814384 19.105466 7 15 C5.68867698 12.15062989 4.52751428 10.47126598 2.375 8.0625 C0 5 0 5 -0.3125 2.125 C-0.209375 1.42375 -0.10625 0.7225 0 0 Z " fill="#263B37" transform="translate(419,236)"/>
<path d="M0 0 C0.66 0 1.32 0 2 0 C2.33 1.32 2.66 2.64 3 4 C4.65 4 6.3 4 8 4 C6.1682243 8.71028037 6.1682243 8.71028037 4.875 10.9375 C3.59377854 13.95752202 3.57315679 15.70720955 4 19 C5.47817901 22.44050027 7.18767291 25.72486605 9 29 C6.69 28.67 4.38 28.34 2 28 C2.33 29.65 2.66 31.3 3 33 C2.01 33.495 2.01 33.495 1 34 C-4.2337846 22.62220739 -4.28089604 11.74698259 0 0 Z " fill="#F2DBB5" transform="translate(92,234)"/>
<path d="M0 0 C4.29262781 3.48050904 6.59687326 9.70599418 8 15 C7.60546875 17.30859375 7.60546875 17.30859375 7 19 C4.64453125 18.80859375 4.64453125 18.80859375 2 18 C0.63671875 15.78515625 0.63671875 15.78515625 -0.3125 13.0625 C-0.63863281 12.16660156 -0.96476562 11.27070312 -1.30078125 10.34765625 C-2 8 -2 8 -2 6 C-3.10408203 6.23396484 -3.10408203 6.23396484 -4.23046875 6.47265625 C-5.20628906 6.66730469 -6.18210937 6.86195312 -7.1875 7.0625 C-8.15042969 7.25972656 -9.11335938 7.45695312 -10.10546875 7.66015625 C-13.03610862 8.00423947 -15.16307068 7.74164697 -18 7 C-17.67 5.35 -17.34 3.7 -17 2 C-11.40440132 0.37218947 -5.83843431 -1.07519681 0 0 Z " fill="#293D39" transform="translate(341,91)"/>
<path d="M0 0 C0 1.65 0 3.3 0 5 C-0.78246094 5.27714844 -1.56492187 5.55429688 -2.37109375 5.83984375 C-3.88896484 6.38318359 -3.88896484 6.38318359 -5.4375 6.9375 C-6.44683594 7.29714844 -7.45617187 7.65679687 -8.49609375 8.02734375 C-10.90313745 8.76877639 -10.90313745 8.76877639 -12 10 C-11.90968426 12.35694954 -11.75311872 14.71153582 -11.5625 17.0625 C-11.46066406 18.35285156 -11.35882813 19.64320313 -11.25390625 20.97265625 C-11.17011719 21.97167969 -11.08632812 22.97070312 -11 24 C-12.65 24.33 -14.3 24.66 -16 25 C-18.31850456 19.16233672 -20.32233419 13.31923166 -19 7 C-14.44807824 1.59459291 -6.87716835 -0.51578763 0 0 Z " fill="#283D39" transform="translate(110,152)"/>
<path d="M0 0 C0.99 0.33 1.98 0.66 3 1 C2.67 2.32 2.34 3.64 2 5 C3.98 4.67 5.96 4.34 8 4 C5.96349218 10.06731604 2.14193816 13.36190786 -3 17 C-8.28138819 19.58665533 -13.08279389 21.25541897 -19 21 C-19.04241723 18.66705225 -19.04092937 16.33297433 -19 14 C-18.67 13.67 -18.34 13.34 -18 13 C-17.25492187 13.03480469 -16.50984375 13.06960938 -15.7421875 13.10546875 C-12.47558678 13.19892735 -10.10624859 13.06210942 -7 12 C-3.93127431 8.32802054 -1.92815387 4.36302394 0 0 Z " fill="#F5DDB6" transform="translate(335,373)"/>
<path d="M0 0 C6.38116083 2.91070494 10.65061388 7.48448325 13.375 13.9375 C14.93802942 18.29928721 15.65841678 22.38862647 16 27 C15.67 26.34 15.34 25.68 15 25 C13.865625 25.020625 12.73125 25.04125 11.5625 25.0625 C8 25 8 25 7 24 C7 22.4375 7 20.875 7 19.3125 C6.71351328 15.97492971 6.48156724 14.490522 4.109375 12.07421875 C0.25279673 9.50103821 -3.67529798 7.65626886 -8 6 C-5 4 -5 4 -1 4 C-0.67 2.68 -0.34 1.36 0 0 Z " fill="#F2DBB5" transform="translate(379,159)"/>
<path d="M0 0 C2.7801373 1.45366656 5.41078307 3.09949007 8.078125 4.75 C11.64597597 6.27635336 13.30498307 6.06341999 17 5 C19.55731323 3.85774517 19.55731323 3.85774517 21.875 2.4375 C22.65617187 1.98246094 23.43734375 1.52742188 24.2421875 1.05859375 C24.82226562 0.70925781 25.40234375 0.35992187 26 0 C26.66 0.66 27.32 1.32 28 2 C27.01 2.33 26.02 2.66 25 3 C25 3.99 25 4.98 25 6 C25.99 6.66 26.98 7.32 28 8 C27 10 27 10 25.13671875 10.88671875 C16.35621376 13.75753776 7.61199643 13.58833185 -1 10 C-0.505 9.1028125 -0.505 9.1028125 0 8.1875 C1.20787988 5.94613529 1.20787988 5.94613529 1 3 C0.01 2.34 -0.98 1.68 -2 1 C-1.34 0.67 -0.68 0.34 0 0 Z " fill="#F0D9B4" transform="translate(237,399)"/>
<path d="M0 0 C6.90025468 0.5018367 13.94537661 1.94537661 19 7 C19.78911594 13.24329961 18.76918884 19.02898766 17 25 C15.35 25 13.7 25 12 25 C11.88861841 19.54230189 12.08342019 14.38490641 13 9 C12.22914063 8.80664062 11.45828125 8.61328125 10.6640625 8.4140625 C9.66117187 8.15367187 8.65828125 7.89328125 7.625 7.625 C6.62726563 7.36976563 5.62953125 7.11453125 4.6015625 6.8515625 C2 6 2 6 0 4 C0 2.68 0 1.36 0 0 Z " fill="#253A37" transform="translate(390,152)"/>
<path d="M0 0 C0.763125 0.350625 1.52625 0.70125 2.3125 1.0625 C5.04759379 2.32360884 5.04759379 2.32360884 8 1 C8.73214651 7.95539187 6.18157672 14.05397733 2.09375 19.57421875 C-1.0031528 23.16223486 -3.58673034 26.10859872 -8 28 C-8 26.02 -8 24.04 -8 22 C-9.65 21.67 -11.3 21.34 -13 21 C-10 19 -10 19 -7.7734375 17.94921875 C-5.04334851 16.51303187 -3.10134778 15.27680823 -1 13 C0.07416954 8.63586193 0.16608591 4.47767618 0 0 Z " fill="#F7DFB8" transform="translate(386,315)"/>
<path d="M0 0 C2.5999298 2.51027705 4.99091227 4.9863684 7 8 C7 8.66 7 9.32 7 10 C10.63 10 14.26 10 18 10 C19.35439668 12.70879335 19.06501451 15.00933268 19 18 C8.64063586 17.52039981 2.68806046 14.16283086 -4.53125 6.8046875 C-6 5 -6 5 -6 3 C-5.195625 2.690625 -4.39125 2.38125 -3.5625 2.0625 C-1.10919595 1.23664655 -1.10919595 1.23664655 0 0 Z " fill="#F7DFB8" transform="translate(165,376)"/>
<path d="M0 0 C2.86541175 3.48448218 4.8143509 7.32845785 6.75 11.375 C7.07871094 12.02210938 7.40742188 12.66921875 7.74609375 13.3359375 C9.84057963 17.71933411 10.40184786 20.35302347 9 25 C7.95879765 27.82177854 6.78916996 30.56685786 5.5625 33.3125 C5.24990234 34.04017578 4.93730469 34.76785156 4.61523438 35.51757812 C2.2545857 40.87270715 2.2545857 40.87270715 0 42 C0.55817751 31.52935977 0.55817751 31.52935977 2.6875 26.875 C4.3143238 22.98167897 3.8020272 20.43581142 2.68359375 16.44140625 C1.91263699 13.68798924 1.38282306 10.93841387 0.875 8.125 C0.70742188 7.22007812 0.53984375 6.31515625 0.3671875 5.3828125 C0 3 0 3 0 0 Z " fill="#F0D9B4" transform="translate(376,229)"/>
<path d="M0 0 C0.72832031 0.31259766 1.45664062 0.62519531 2.20703125 0.94726562 C7.63077278 3.31827278 7.63077278 3.31827278 9.875 5.5625 C7.81190624 5.44771587 5.74951646 5.32023802 3.6875 5.1875 C1.96466797 5.08308594 1.96466797 5.08308594 0.20703125 4.9765625 C-2.94407349 4.58498325 -5.23532968 3.8123574 -8.125 2.5625 C-11.40459836 2.28338525 -13.69838389 2.41368043 -16.8125 3.5 C-21.51081226 5.00700582 -26.22124575 5.23092943 -31.125 5.5625 C-27.95176019 2.10964471 -24.42741718 0.65726253 -20.1875 -1.1875 C-19.47142578 -1.51621094 -18.75535156 -1.84492187 -18.01757812 -2.18359375 C-17.32212891 -2.48910156 -16.62667969 -2.79460937 -15.91015625 -3.109375 C-15.27988525 -3.3887793 -14.64961426 -3.66818359 -14.00024414 -3.95605469 C-9.31160974 -5.15980251 -4.21945843 -1.85308953 0 0 Z " fill="#EDD7B2" transform="translate(261.125,118.4375)"/>
<path d="M0 0 C0.495 0.99 0.495 0.99 1 2 C-0.60357654 4.25042262 -2.20783936 6.50035059 -3.8125 8.75 C-4.26431641 9.38421875 -4.71613281 10.0184375 -5.18164062 10.671875 C-5.62314453 11.290625 -6.06464844 11.909375 -6.51953125 12.546875 C-6.92276611 13.11245117 -7.32600098 13.67802734 -7.74145508 14.26074219 C-8.1567749 14.83469727 -8.57209473 15.40865234 -9 16 C-9.44085938 16.71865234 -9.88171875 17.43730469 -10.3359375 18.17773438 C-12 20 -12 20 -14.36010742 20.54589844 C-15.26607666 20.5668457 -16.1720459 20.58779297 -17.10546875 20.609375 C-18.08837891 20.64160156 -19.07128906 20.67382812 -20.08398438 20.70703125 C-21.10814453 20.72121094 -22.13230469 20.73539062 -23.1875 20.75 C-24.22326172 20.77964844 -25.25902344 20.80929687 -26.32617188 20.83984375 C-28.88419312 20.91057245 -31.44130158 20.96325257 -34 21 C-27.59404244 16.10088704 -22.03263912 14.56968005 -14 15 C-13.773125 14.443125 -13.54625 13.88625 -13.3125 13.3125 C-10.2164651 7.85758137 -4.75578108 3.9882775 0 0 Z " fill="#EED8B3" transform="translate(330,349)"/>
<path d="M0 0 C6.93165538 2.44724474 13.92977299 6.62326983 19 12 C20.58973494 15.81536385 20.38715453 18.93768293 20 23 C20.00769623 25.06259086 20.02812802 27.1251812 20.0625 29.1875 C20.0467943 30.79172506 20.02792366 32.39594109 20 34 C16.77354836 29.16032254 14.1538147 24.23031314 13.75 18.375 C12.75205526 13.88424868 10.58863399 12.62185064 7.078125 9.84375 C3.92327308 7.04470845 1.98894906 3.68146821 0 0 Z " fill="#EDD7B2" transform="translate(350,170)"/>
<path d="M0 0 C0.33 0 0.66 0 1 0 C2.62052591 19.20225576 2.62052591 19.20225576 -1.55322266 25.25097656 C-6.63425659 30.27431518 -12.96279791 34.47828441 -20 36 C-16.44125106 30.13393032 -12.81991228 24.82494235 -7 21 C-6.34 21 -5.68 21 -5 21 C-5.103125 19.948125 -5.20625 18.89625 -5.3125 17.8125 C-5.36983494 11.44832199 -2.45543622 5.75273629 0 0 Z " fill="#EDD7B2" transform="translate(369,295)"/>
<path d="M0 0 C2.04212951 3.06319427 3.19978905 5.8756619 4.5 9.3125 C4.9228125 10.42238281 5.345625 11.53226562 5.78125 12.67578125 C6.57879394 14.85113346 7.3149428 17.05022758 7.98046875 19.26953125 C9.15839583 22.42420952 10.75410281 23.58185223 13.40234375 25.56640625 C16.31640877 28.18122743 18.10070547 31.61320489 20 35 C13.47821258 32.58950821 6.58098541 29.40459179 2 24 C0.20890941 18.97951879 -0.01715179 14.29990428 0 9 C-0.02707031 8.02160156 -0.05414063 7.04320312 -0.08203125 6.03515625 C-0.11698798 4.02355539 -0.07054973 2.01066724 0 0 Z " fill="#E9D4AF" transform="translate(130,295)"/>
<path d="M0 0 C-2.22791998 1.12752649 -4.45725887 2.25208139 -6.6875 3.375 C-7.31333984 3.69210937 -7.93917969 4.00921875 -8.58398438 4.3359375 C-10.38161543 5.23945887 -12.19064029 6.12020133 -14 7 C-14.85207031 7.42539062 -15.70414063 7.85078125 -16.58203125 8.2890625 C-22.47063387 10.02044485 -27.67966925 6.97978879 -32.875 4.4375 C-33.56335938 4.10814453 -34.25171875 3.77878906 -34.9609375 3.43945312 C-36.6438733 2.63304639 -38.32240293 1.81745506 -40 1 C-40 0.67 -40 0.34 -40 0 C-33.98970147 -0.28620469 -29.61915641 0.15608344 -24.04296875 2.44140625 C-21.60251272 3.10868199 -20.37405166 2.79771957 -18 2 C-5.52 -1.84 -5.52 -1.84 0 0 Z " fill="#ECD6B1" transform="translate(271,377)"/>
<path d="M0 0 C3.34096707 -0.13575035 6.6577109 -0.07293827 10 0 C11.03511719 -0.05027344 12.07023437 -0.10054687 13.13671875 -0.15234375 C17.80480703 -0.02283105 21.32794533 0.31487875 24.74951172 3.76318359 C28.62072672 8.53916118 31.8965526 13.70035788 35 19 C34.67 19.66 34.34 20.32 34 21 C32.26797907 19.60770997 30.53951516 18.21099444 28.8125 16.8125 C27.84957031 16.03519531 26.88664062 15.25789062 25.89453125 14.45703125 C23 12 23 12 20.40234375 9.265625 C17.95980127 6.962089 16.98297766 6.36257669 13.75 5.9375 C8.76295319 5.0741961 4.53046416 3.20632534 0 1 C0 0.67 0 0.34 0 0 Z " fill="#E9D4B0" transform="translate(296,130)"/>
<path d="M0 0 C5.45597866 0.29228457 9.89621119 1.12038396 14.48828125 4.21484375 C17.10687977 7.30709059 16.75921489 10.43619779 16.48046875 14.328125 C15.88931686 17.61550622 14.81606336 20.20023565 13 23 C12.34 23 11.68 23 11 23 C9.95023036 19.85069107 9.89868405 17.61185544 9.9375 14.3125 C9.94652344 13.31863281 9.95554687 12.32476562 9.96484375 11.30078125 C9.97644531 10.54152344 9.98804688 9.78226563 10 9 C9.24332031 8.72414062 8.48664063 8.44828125 7.70703125 8.1640625 C4.13900636 6.62976031 1.89948071 4.56233179 -1 2 C-0.67 1.34 -0.34 0.68 0 0 Z " fill="#EED7B2" transform="translate(364,169)"/>
<path d="M0 0 C0.66 0.33 1.32 0.66 2 1 C2.85944767 6.44316855 0.95148163 10.4606776 -1.8828125 14.9765625 C-4.66417117 17.63476138 -6.32088283 17.7034949 -10.125 17.75 C-13.83609578 17.50448221 -16.87758512 17.10079526 -20 15 C-20.33 14.01 -20.66 13.02 -21 12 C-18 11 -18 11 -15.546875 11.03515625 C-12.4377098 11.06555312 -9.98529272 10.90513743 -7 10 C-4.0194228 7.00408536 -1.97777282 3.71929291 0 0 Z " fill="#EDD7B2" transform="translate(329,363)"/>
<path d="M0 0 C3.84488971 3.91300784 5.81376718 8.1997494 6.375 13.625 C6.25125 14.40875 6.1275 15.1925 6 16 C5.01 16 4.02 16 3 16 C1.8515625 14.06640625 1.8515625 14.06640625 0.625 11.5625 C-1.46418987 8.1622369 -2.34623443 7.16344139 -6.28125 6.1796875 C-9.54504083 5.95973638 -12.73195099 5.87878156 -16 6 C-16 3 -16 3 -14 1 C-9.44104606 -0.45769128 -4.66434377 -1.26876018 0 0 Z " fill="#ECD6B1" transform="translate(325,120)"/>
<path d="M0 0 C-2.40685793 2.40685793 -4.61994339 3.29355801 -7.75 4.625 C-8.77609375 5.07101563 -9.8021875 5.51703125 -10.859375 5.9765625 C-14.10388943 7.03385451 -16.61278998 7.1926856 -20 7 C-20.26167969 7.59683594 -20.52335938 8.19367188 -20.79296875 8.80859375 C-23.57421428 13.85803951 -29.03987978 17.29447988 -34 20 C-32.47050721 15.40288042 -30.00027855 12.02290464 -27.0625 8.25 C-26.61970703 7.66089844 -26.17691406 7.07179687 -25.72070312 6.46484375 C-22.37302975 2.12434325 -22.37302975 2.12434325 -19 1 C-16.89974163 0.77286925 -14.79444897 0.5906001 -12.6875 0.4375 C-11.02267578 0.31181641 -11.02267578 0.31181641 -9.32421875 0.18359375 C-6.20742844 0.01145609 -3.12067656 -0.03304801 0 0 Z " fill="#E9D3AF" transform="translate(204,130)"/>
<path d="M0 0 C3 1 3 1 4.1484375 2.69140625 C5.87505708 7.37228776 5.97096114 12.13189349 5 17 C1.7928245 20.95496253 -2.60995206 22.13138618 -7.5 22.8125 C-8.655 22.874375 -9.81 22.93625 -11 23 C-11 22.01 -11 21.02 -11 20 C-9.1015625 18.88671875 -9.1015625 18.88671875 -6.625 17.6875 C-3.11568304 15.53342947 -2.15179375 14.50995879 -0.95703125 10.49609375 C-0.48630883 6.98868081 -0.15011368 3.53493498 0 0 Z " fill="#F0D9B4" transform="translate(375,308)"/>
<path d="M0 0 C0.33 1.32 0.66 2.64 1 4 C-8.28249218 12.81129969 -8.28249218 12.81129969 -13 13 C-16.74694649 11.12938702 -20.04582934 8.9764243 -23 6 C-23.79296875 3.25390625 -23.79296875 3.25390625 -24 1 C-20.88746417 1.45772586 -18.74650195 2.13450917 -15.9375 3.625 C-12.64776011 5.16487824 -12.25935442 5.1025173 -9 4 C-7.40413879 3.34210358 -5.82063893 2.65352657 -4.25 1.9375 C-3.45078125 1.57527344 -2.6515625 1.21304687 -1.828125 0.83984375 C-1.22484375 0.56269531 -0.6215625 0.28554688 0 0 Z " fill="#F0D9B4" transform="translate(262,387)"/>
<path d="M0 0 C0 1.32 0 2.64 0 4 C-1.6796875 5.484375 -1.6796875 5.484375 -3.875 6.75 C-4.59429687 7.17796875 -5.31359375 7.6059375 -6.0546875 8.046875 C-8 9 -8 9 -10 9 C-9.98839844 9.59167969 -9.97679688 10.18335938 -9.96484375 10.79296875 C-9.91677614 15.00231785 -9.93993117 18.8922333 -11 23 C-11.99 22.67 -12.98 22.34 -14 22 C-16.16924466 17.43316913 -17.49063984 11.93939827 -16 7 C-11.42005846 2.57671642 -6.33299801 -0.16665784 0 0 Z " fill="#EFD8B3" transform="translate(136,169)"/>
<path d="M0 0 C0.66 0.33 1.32 0.66 2 1 C0.73147606 2.60599349 -0.539911 4.20972575 -1.8125 5.8125 C-2.87404297 7.15248047 -2.87404297 7.15248047 -3.95703125 8.51953125 C-7.17323031 12.42447657 -7.17323031 12.42447657 -9 14 C-9.66 14 -10.32 14 -11 14 C-11.061875 15.0725 -11.12375 16.145 -11.1875 17.25 C-11.8982965 23.23792203 -14.53981622 28.55309864 -17 34 C-17.33 34 -17.66 34 -18 34 C-18.10250595 30.97607456 -18.08764057 28.02151314 -18 25 C-18.00580078 23.44539063 -18.00580078 23.44539063 -18.01171875 21.859375 C-17.68991016 16.53375838 -17.10510674 12.68858637 -13.078125 9.015625 C-9.87075825 6.42854015 -6.48761721 4.19031247 -3 2 C-2.01 1.34 -1.02 0.68 0 0 Z " fill="#ECD6B1" transform="translate(148,170)"/>
<path d="M0 0 C10.1533396 6.61147695 10.1533396 6.61147695 12.5625 10.5625 C15.9582103 13.9582103 19.3910627 14.32053057 24.00390625 15.30859375 C27.61272077 16.1413971 30.66792287 17.40969046 34 19 C34 19.33 34 19.66 34 20 C31.10388456 19.85865273 28.2081919 19.7120847 25.3125 19.5625 C24.49587891 19.52318359 23.67925781 19.48386719 22.83789062 19.44335938 C21.2501475 19.35979395 19.66312793 19.26082667 18.07739258 19.14526367 C16.48139531 19.03366203 14.88097932 18.98392212 13.28125 18.9609375 C9.30391031 17.28555126 7.47240714 13.59205615 5.1875 10.0625 C4.68541016 9.32064453 4.18332031 8.57878906 3.66601562 7.81445312 C0 2.3129358 0 2.3129358 0 0 Z " fill="#F1DAB4" transform="translate(170,350)"/>
<path d="M0 0 C5.80205656 5.64524422 5.80205656 5.64524422 8 9 C8 9.66 8 10.32 8 11 C14.93 11.495 14.93 11.495 22 12 C21 15 21 15 19.328125 16.1796875 C16.36411661 17.22405287 13.88557132 17.19316459 10.75 17.125 C9.67234375 17.10695313 8.5946875 17.08890625 7.484375 17.0703125 C6.66453125 17.04710937 5.8446875 17.02390625 5 17 C1.73652267 11.68932286 -0.73738839 7.30267874 -1 1 C-0.67 0.67 -0.34 0.34 0 0 Z " fill="#F1DAB4" transform="translate(170,363)"/>
<path d="M0 0 C0.33 0 0.66 0 1 0 C1.25282715 5.22509443 1.10176488 9.13055192 -0.6875 14.0625 C-2.19284241 18.58549642 -1.79382386 20.69279469 0.2265625 24.90625 C1.6644416 28.7986904 1.22626334 32.9104996 1 37 C-3.37188227 31.63450812 -8.18816369 23.5786499 -7.89453125 16.43359375 C-7.1409072 14.10610291 -6.18964751 12.13752795 -5 10 C-4.33871094 8.62908203 -4.33871094 8.62908203 -3.6640625 7.23046875 C-2.48547954 4.79495772 -1.26353551 2.39222731 0 0 Z " fill="#ECD6B1" transform="translate(122,232)"/>
<path d="M0 0 C-1.0069192 3.25312358 -2.02771252 6.04750717 -3.75 9 C-5.30691193 11.94116704 -5.30691193 11.94116704 -4.375 15 C-3.41215092 17.10076163 -2.40846773 19.18306453 -1.375 21.25 C0 24 0 24 0 26 C-2.125 26 -2.125 26 -5 25 C-8.04305806 21.88414151 -10.32287215 18.42553231 -12.1875 14.5 C-11.78514697 9.1352929 -8.1172413 5.03929424 -4.3125 1.5 C-2 0 -2 0 0 0 Z " fill="#F2DBB5" transform="translate(113,237)"/>
<path d="M0 0 C2.32421875 1.234375 2.32421875 1.234375 4.6875 2.75 C5.86892578 3.48476562 5.86892578 3.48476562 7.07421875 4.234375 C9.43713296 6.40077911 9.68553392 7.86599911 10 11 C6.73610726 9.98974748 3.91452941 8.95115966 0.9375 7.25 C-1.8537299 5.70485258 -1.8537299 5.70485258 -4.3125 6.625 C-5.199375 7.07875 -6.08625 7.5325 -7 8 C-8.59741857 8.56125517 -10.20225764 9.10167123 -11.8125 9.625 C-12.60269531 9.88539062 -13.39289063 10.14578125 -14.20703125 10.4140625 C-15.09455078 10.70410156 -15.09455078 10.70410156 -16 11 C-14.38848806 5.35970819 -10.65875028 2.72036783 -5.875 -0.375 C-3.45447923 -1.18184026 -2.41818853 -0.79014419 0 0 Z " fill="#F1DAB4" transform="translate(253,102)"/>
<path d="M0 0 C3.0681645 0.32461809 4.61146669 0.61477336 6.8359375 2.8203125 C9.3381537 6.567286 10.9352179 9.06065953 11.25 13.625 C9.6762688 17.87407425 7.50332814 21.09560149 4 24 C1.80078125 24.6953125 1.80078125 24.6953125 0 25 C0.45598618 21.89929398 1.11630537 19.7852824 2.625 17 C4.23834301 13.4799789 4.17643544 12.61333743 3 9 C2.63068359 7.8553125 2.63068359 7.8553125 2.25390625 6.6875 C1.52341502 4.45058906 0.7702272 2.22348608 0 0 Z " fill="#F4DCB6" transform="translate(388,238)"/>
<path d="M0 0 C3.53738579 0.77705026 4.79790384 1.90819541 7.05859375 4.671875 C4.29407342 6.05413516 2.01245745 5.76712887 -1.06640625 5.734375 C-2.16210938 5.72535156 -3.2578125 5.71632813 -4.38671875 5.70703125 C-5.22976562 5.69542969 -6.0728125 5.68382813 -6.94140625 5.671875 C-7.22757813 6.42855469 -7.51375 7.18523437 -7.80859375 7.96484375 C-9.14886506 11.16763002 -10.9591636 13.83066053 -12.94140625 16.671875 C-13.93140625 16.341875 -14.92140625 16.011875 -15.94140625 15.671875 C-15.62923354 10.67711166 -14.64849766 6.44795045 -11.8671875 2.22265625 C-8.33863452 -0.61879513 -4.35121443 -0.10060611 0 0 Z " fill="#F2DBB5" transform="translate(184.94140625,120.328125)"/>
<path d="M0 0 C1.90608098 3.21182149 2.22266247 5.53882603 2.125 9.25 C2.10695313 10.14203125 2.08890625 11.0340625 2.0703125 11.953125 C2.03550781 12.96632813 2.03550781 12.96632813 2 14 C2.70125 14.226875 3.4025 14.45375 4.125 14.6875 C7.69343613 16.31656867 10.06514511 18.40640731 13 21 C12.67 21.66 12.34 22.32 12 23 C6.74605711 23.80829891 3.03727057 22.21101395 -1.1953125 19.25390625 C-4.37209249 15.28636934 -3.79671693 11.03103315 -3.609375 6.14453125 C-2.99138899 2.95556497 -2.5616378 1.89368386 0 0 Z " fill="#F6DDB7" transform="translate(124,308)"/>
<path d="M0 0 C2.5978867 3.89683004 3.36614794 7.31967412 3 12 C1.61045053 14.53206792 0.12608327 15.97762811 -2 18 C-3.32 17.67 -4.64 17.34 -6 17 C-7.34330218 9.79501558 -7.34330218 9.79501558 -5.8125 6.25 C-3.9997108 3.999641 -2.11451156 1.96868318 0 0 Z " fill="#EFD9B3" transform="translate(204,420)"/>
<path d="M0 0 C5.22237172 0.40959778 8.48201867 0.97944991 12 5 C12.980718 7.96258561 13.55824605 10.91431567 14 14 C9.31515445 13.40801516 5.22264773 12.87695501 1.9375 9.25 C-0.14807204 5.7516211 -0.47506677 3.99056085 0 0 Z " fill="#EFD8B3" transform="translate(112,112)"/>
<path d="M0 0 C0.89203125 0.19464844 1.7840625 0.38929688 2.703125 0.58984375 C3.37859375 0.74582031 4.0540625 0.90179688 4.75 1.0625 C3.82038578 2.21474028 2.8809875 3.35909176 1.9375 4.5 C1.15439453 5.45712891 1.15439453 5.45712891 0.35546875 6.43359375 C-2.1528992 8.97858021 -4.23822665 9.06186928 -7.75 9.25 C-11.25 9.0625 -11.25 9.0625 -14.25 7.0625 C-12.96111971 4.1873055 -11.71733017 2.0553436 -9.25 0.0625 C-5.88332884 -1.15365434 -3.45461764 -0.77274342 0 0 Z " fill="#EFD9B3" transform="translate(76.25,293.9375)"/>
<path d="M0 0 C-0.67997395 4.18720801 -1.29052747 7.9085038 -3.625 11.5 C-7.05852661 13.66854312 -9.9638842 13.73092561 -14 14 C-13.75489645 9.83323968 -13.40672124 7.52292731 -10.8125 4.1875 C-7.45229935 1.5740106 -4.31922377 0 0 0 Z " fill="#F1DAB4" transform="translate(126,374)"/>
<path d="M0 0 C8.99001547 2.11025172 8.99001547 2.11025172 12.625 5.3125 C14.22798602 8.44560904 14.32314936 10.52614438 14 14 C10.52614438 14.32314936 8.44560904 14.22798602 5.3125 12.625 C2.01057535 8.87686932 1.1255557 4.79505028 0 0 Z " fill="#F2DBB5" transform="translate(374,374)"/>
<path d="M0 0 C2.902586 2.10096929 5.4624587 4.47533962 8 7 C4.27521864 8.96811592 1.26624705 9.85288803 -3 10 C-8.51724138 7.24137931 -8.51724138 7.24137931 -9.875 3.75 C-9.91625 3.1725 -9.9575 2.595 -10 2 C-6.53448984 -0.13262163 -4.02900212 -0.69732729 0 0 Z " fill="#F1DAB4" transform="translate(72,197)"/>
<path d="M0 0 C3 1 3 1 4 3 C4.42070387 6.05911811 4.48077115 8.94631074 4 12 C1.56246638 15.09632649 -0.73450731 16.82300487 -4 19 C-4.96375913 14.18120436 -5.46525633 9.88519142 -5 5 C-2.5 2 -2.5 2 0 0 Z " fill="#F1DAB4" transform="translate(299,62)"/>
<path d="M0 0 C2 0 2 0 4.5625 2.4375 C7.57179241 6.17685744 8.35286286 10.24992302 8 15 C7.01 16.485 7.01 16.485 6 18 C2.65197945 17.09512958 1.21032402 16.27138583 -0.9375 13.5 C-2.42045019 8.61498762 -1.32806275 4.83453058 0 0 Z " fill="#F5DDB7" transform="translate(295,420)"/>
<path d="M0 0 C0.66 0.33 1.32 0.66 2 1 C1.43840585 4.25724605 0.70956113 6.03790401 -2 8 C-7.19085192 9.56932732 -10.94749356 8.48090706 -16 7 C-15.07038578 5.84775972 -14.1309875 4.70340824 -13.1875 3.5625 C-12.66542969 2.92441406 -12.14335937 2.28632813 -11.60546875 1.62890625 C-8.08604483 -1.94189612 -4.54178134 -0.82577843 0 0 Z " fill="#F3DCB6" transform="translate(436,198)"/>
<path d="M0 0 C0.47506677 3.99056085 0.14807204 5.7516211 -1.9375 9.25 C-5.22264773 12.87695501 -9.31515445 13.40801516 -14 14 C-12.02878443 4.93932491 -12.02878443 4.93932491 -8.125 1.375 C-5.07066822 0.03109402 -3.28082581 -0.38597951 0 0 Z " fill="#F4DCB6" transform="translate(388,112)"/>
<path d="M0 0 C3.10331257 0.92260644 4.74711947 1.70497271 6.875 4.1875 C8.34912226 7.87280565 7.8238129 10.1555398 7 14 C6.814375 14.969375 6.62875 15.93875 6.4375 16.9375 C6.2209375 17.9584375 6.2209375 17.9584375 6 19 C-0.24675325 13.09090909 -0.24675325 13.09090909 -2 9 C-1.77370423 5.66213732 -1.50085749 3.00171497 0 0 Z " fill="#F4DCB6" transform="translate(199,62)"/>
<path d="M0 0 C1.46708753 1.22487968 2.8507493 2.54817767 4.21875 3.8828125 C3.21875 6.8828125 3.21875 6.8828125 1.21875 7.8828125 C-2.89617198 8.14616751 -6.48024507 7.98325683 -9.70703125 5.25390625 C-11.17597595 3.51851812 -12.52169051 1.77462147 -13.78125 -0.1171875 C-3.97657325 -2.49407883 -3.97657325 -2.49407883 0 0 Z " fill="#FAE1BA" transform="translate(433.78125,295.1171875)"/>
<path d="M0 0 C1.67542976 0.28604898 3.34385343 0.61781233 5 1 C4.67 2.65 4.34 4.3 4 6 C2.68 6 1.36 6 0 6 C-0.38218767 4.34385343 -0.71395102 2.67542976 -1 1 C-0.67 0.67 -0.34 0.34 0 0 Z " fill="#3D4D45" transform="translate(374,336)"/>
<path d="M0 0 C2.125 0.9375 2.125 0.9375 4 2 C3.67 3.32 3.34 4.64 3 6 C1.35 5.67 -0.3 5.34 -2 5 C-2 3.68 -2 2.36 -2 1 C-1.34 0.67 -0.68 0.34 0 0 Z " fill="#344640" transform="translate(96,261)"/>
<path d="M0 0 C2.125 0.9375 2.125 0.9375 4 2 C3.67 3.32 3.34 4.64 3 6 C1.35 5.67 -0.3 5.34 -2 5 C-2 3.68 -2 2.36 -2 1 C-1.34 0.67 -0.68 0.34 0 0 Z " fill="#344640" transform="translate(96,233)"/>
<path d="M0 0 C1.67542976 0.28604898 3.34385343 0.61781233 5 1 C4.67 2.32 4.34 3.64 4 5 C2.68 5 1.36 5 0 5 C-0.5625 3.0625 -0.5625 3.0625 -1 1 C-0.67 0.67 -0.34 0.34 0 0 Z " fill="#30433E" transform="translate(388,312)"/>
<path d="M0 0 C1.67542976 0.28604898 3.34385343 0.61781233 5 1 C4.67 2.32 4.34 3.64 4 5 C2.68 5 1.36 5 0 5 C-0.5625 3.0625 -0.5625 3.0625 -1 1 C-0.67 0.67 -0.34 0.34 0 0 Z " fill="#33453F" transform="translate(115,201)"/>
<path d="M0 0 C1.32 0.66 2.64 1.32 4 2 C3.67 3.32 3.34 4.64 3 6 C1.35 5.67 -0.3 5.34 -2 5 C-1.125 1.125 -1.125 1.125 0 0 Z " fill="#31443E" transform="translate(375,158)"/>
<path d="M0 0 C-0.33 1.65 -0.66 3.3 -1 5 C-2.32 4.67 -3.64 4.34 -5 4 C-5.33 2.68 -5.66 1.36 -6 0 C-3.50907189 -1.24546405 -2.58919267 -0.7767578 0 0 Z " fill="#344640" transform="translate(360,156)"/>
<path d="M0 0 C1.32 0.66 2.64 1.32 4 2 C3.67 3.32 3.34 4.64 3 6 C1.35 5.67 -0.3 5.34 -2 5 C-1.125 1.125 -1.125 1.125 0 0 Z " fill="#354740" transform="translate(157,140)"/>
<path d="M0 0 C2.0625 0.4375 2.0625 0.4375 4 1 C4 2.32 4 3.64 4 5 C2.68 5.33 1.36 5.66 0 6 C-0.38218767 4.34385343 -0.71395102 2.67542976 -1 1 C-0.67 0.67 -0.34 0.34 0 0 Z " fill="#374842" transform="translate(202,114)"/>
<path d="M0 0 C2.0625 0.4375 2.0625 0.4375 4 1 C3.67 2.65 3.34 4.3 3 6 C1.68 5.67 0.36 5.34 -1 5 C-1 1 -1 1 0 0 Z " fill="#394A43" transform="translate(263,94)"/>
<path d="M0 0 C1.65 0.33 3.3 0.66 5 1 C4.67 2.32 4.34 3.64 4 5 C2.35 5 0.7 5 -1 5 C-0.67 3.35 -0.34 1.7 0 0 Z " fill="#344640" transform="translate(202,381)"/>
<path d="M0 0 C1.65 0.33 3.3 0.66 5 1 C4.67 2.32 4.34 3.64 4 5 C2.35 5 0.7 5 -1 5 C-0.67 3.35 -0.34 1.7 0 0 Z " fill="#2E413C" transform="translate(388,183)"/>
<path d="M0 0 C2.125 0.375 2.125 0.375 4 1 C4 2.32 4 3.64 4 5 C2.68 5.33 1.36 5.66 0 6 C-0.66 4.68 -1.32 3.36 -2 2 C-1.34 1.34 -0.68 0.68 0 0 Z " fill="#2F423D" transform="translate(142,155)"/>
<path d="M0 0 C1.65 0.33 3.3 0.66 5 1 C4.67 2.32 4.34 3.64 4 5 C2.35 4.67 0.7 4.34 -1 4 C-0.67 2.68 -0.34 1.36 0 0 Z " fill="#30433D" transform="translate(262,401)"/>
<path d="M0 0 C1.65 0.33 3.3 0.66 5 1 C4.67 2.32 4.34 3.64 4 5 C2.35 4.67 0.7 4.34 -1 4 C-0.67 2.68 -0.34 1.36 0 0 Z " fill="#30433D" transform="translate(234,401)"/>
<path d="M0 0 C1.98 0.495 1.98 0.495 4 1 C3.67 2.65 3.34 4.3 3 6 C1.68 5.67 0.36 5.34 -1 5 C-0.67 3.35 -0.34 1.7 0 0 Z " fill="#2F423D" transform="translate(313,387)"/>
<path d="M0 0 C1.98 0.495 1.98 0.495 4 1 C3.67 2.65 3.34 4.3 3 6 C1.68 5.67 0.36 5.34 -1 5 C-0.67 3.35 -0.34 1.7 0 0 Z " fill="#31433E" transform="translate(184,387)"/>
<path d="M0 0 C1.98 0.495 1.98 0.495 4 1 C3.67 2.65 3.34 4.3 3 6 C1.68 5.67 0.36 5.34 -1 5 C-0.67 3.35 -0.34 1.7 0 0 Z " fill="#2A3E3A" transform="translate(275,386)"/>
<path d="M0 0 C1.98 0.495 1.98 0.495 4 1 C3.67 2.65 3.34 4.3 3 6 C1.68 5.67 0.36 5.34 -1 5 C-0.67 3.35 -0.34 1.7 0 0 Z " fill="#293D39" transform="translate(222,386)"/>
<path d="M0 0 C1.32 0.66 2.64 1.32 4 2 C3.34 3.32 2.68 4.64 2 6 C0.68 5.67 -0.64 5.34 -2 5 C-1.125 1.125 -1.125 1.125 0 0 Z " fill="#30433D" transform="translate(338,373)"/>
<path d="M0 0 C1.98 0.495 1.98 0.495 4 1 C3.67 2.65 3.34 4.3 3 6 C1.68 5.67 0.36 5.34 -1 5 C-0.67 3.35 -0.34 1.7 0 0 Z " fill="#2B3F3A" transform="translate(160,373)"/>
<path d="M0 0 C1.98 0.495 1.98 0.495 4 1 C3.67 2.65 3.34 4.3 3 6 C1.68 5.67 0.36 5.34 -1 5 C-0.67 3.35 -0.34 1.7 0 0 Z " fill="#2F423D" transform="translate(341,354)"/>
<path d="M0 0 C1.32 0.66 2.64 1.32 4 2 C3.34 3.32 2.68 4.64 2 6 C0.68 5.67 -0.64 5.34 -2 5 C-1.125 1.125 -1.125 1.125 0 0 Z " fill="#2E423D" transform="translate(157,354)"/>
<path d="M0 0 C1.65 0.33 3.3 0.66 5 1 C4.67 2.32 4.34 3.64 4 5 C2.35 4.67 0.7 4.34 -1 4 C-0.67 2.68 -0.34 1.36 0 0 Z " fill="#2A3E3A" transform="translate(355,340)"/>
<path d="M0 0 C1.65 0.33 3.3 0.66 5 1 C4.67 2.32 4.34 3.64 4 5 C2.35 4.67 0.7 4.34 -1 4 C-0.67 2.68 -0.34 1.36 0 0 Z " fill="#2C403B" transform="translate(141,340)"/>
<path d="M0 0 C1.98 0.495 1.98 0.495 4 1 C3.67 2.65 3.34 4.3 3 6 C1.68 5.67 0.36 5.34 -1 5 C-0.67 3.35 -0.34 1.7 0 0 Z " fill="#2B3F3A" transform="translate(123,336)"/>
<path d="M0 0 C1.65 0.33 3.3 0.66 5 1 C4.67 2.32 4.34 3.64 4 5 C2.35 4.67 0.7 4.34 -1 4 C-0.67 2.68 -0.34 1.36 0 0 Z " fill="#2E413C" transform="translate(115,294)"/>
<path d="M0 0 C1.65 0.33 3.3 0.66 5 1 C4.67 2.32 4.34 3.64 4 5 C2.35 4.67 0.7 4.34 -1 4 C-0.67 2.68 -0.34 1.36 0 0 Z " fill="#33453F" transform="translate(387,274)"/>
<path d="M0 0 C1.98 0.495 1.98 0.495 4 1 C3.67 2.65 3.34 4.3 3 6 C1.68 5.67 0.36 5.34 -1 5 C-0.67 3.35 -0.34 1.7 0 0 Z " fill="#2B3F3A" transform="translate(402,261)"/>
<path d="M0 0 C1.98 0.495 1.98 0.495 4 1 C3.67 2.65 3.34 4.3 3 6 C1.68 5.67 0.36 5.34 -1 5 C-0.67 3.35 -0.34 1.7 0 0 Z " fill="#2B3F3A" transform="translate(402,233)"/>
<path d="M0 0 C1.65 0.33 3.3 0.66 5 1 C4.67 2.32 4.34 3.64 4 5 C2.35 4.67 0.7 4.34 -1 4 C-0.67 2.68 -0.34 1.36 0 0 Z " fill="#2B3F3A" transform="translate(387,221)"/>
<path d="M0 0 C1.98 0.495 1.98 0.495 4 1 C3.67 2.65 3.34 4.3 3 6 C1.68 5.67 0.36 5.34 -1 5 C-0.67 3.35 -0.34 1.7 0 0 Z " fill="#2E413C" transform="translate(341,140)"/>
<path d="M0 0 C1.65 0.33 3.3 0.66 5 1 C4.67 2.32 4.34 3.64 4 5 C2.35 4.67 0.7 4.34 -1 4 C-0.67 2.68 -0.34 1.36 0 0 Z " fill="#2C403B" transform="translate(337,122)"/>
<path d="M0 0 C1.98 0.495 1.98 0.495 4 1 C3.67 2.65 3.34 4.3 3 6 C1.68 5.67 0.36 5.34 -1 5 C-0.67 3.35 -0.34 1.7 0 0 Z " fill="#2F423D" transform="translate(295,114)"/>
<path d="M0 0 C1.98 0.495 1.98 0.495 4 1 C3.67 2.65 3.34 4.3 3 6 C1.68 5.67 0.36 5.34 -1 5 C-0.67 3.35 -0.34 1.7 0 0 Z " fill="#2C3F3B" transform="translate(295,381)"/>
<path d="M0 0 C2.0625 0.4375 2.0625 0.4375 4 1 C4 2.32 4 3.64 4 5 C2.35 5 0.7 5 -1 5 C-1 1 -1 1 0 0 Z " fill="#31443E" transform="translate(235,94)"/>
<path d="M0 0 C1.32 0 2.64 0 4 0 C4 1.65 4 3.3 4 5 C2.35 5 0.7 5 -1 5 C-0.67 3.35 -0.34 1.7 0 0 Z " fill="#283C39" transform="translate(382,294)"/>
<path d="M0 0 C2.475 0.495 2.475 0.495 5 1 C5 2.32 5 3.64 5 5 C3.35 5 1.7 5 0 5 C0 3.35 0 1.7 0 0 Z " fill="#253A37" transform="translate(109,221)"/>
<path d="M0 0 C1.32 0 2.64 0 4 0 C4 1.65 4 3.3 4 5 C2.35 5 0.7 5 -1 5 C-0.67 3.35 -0.34 1.7 0 0 Z " fill="#263B37" transform="translate(382,201)"/>
<path d="M0 0 C1.65 0 3.3 0 5 0 C5 1.65 5 3.3 5 5 C3.35 4.67 1.7 4.34 0 4 C0 2.68 0 1.36 0 0 Z " fill="#263B37" transform="translate(122,159)"/>
<path d="M0 0 C1.98 0.495 1.98 0.495 4 1 C4 2.32 4 3.64 4 5 C2.35 5 0.7 5 -1 5 C-0.67 3.35 -0.34 1.7 0 0 Z " fill="#213734" transform="translate(109,312)"/>
<path d="M0 0 C1.98 0.495 1.98 0.495 4 1 C4 2.32 4 3.64 4 5 C2.35 5 0.7 5 -1 5 C-0.67 3.35 -0.34 1.7 0 0 Z " fill="#263B38" transform="translate(110,274)"/>
<path d="M0 0 C1.98 0.495 1.98 0.495 4 1 C4 2.32 4 3.64 4 5 C2.35 5 0.7 5 -1 5 C-0.67 3.35 -0.34 1.7 0 0 Z " fill="#213734" transform="translate(109,183)"/>
<path d="M0 0 C2.475 0.495 2.475 0.495 5 1 C4.67 2.32 4.34 3.64 4 5 C2.68 5 1.36 5 0 5 C0 3.35 0 1.7 0 0 Z " fill="#233936" transform="translate(159,122)"/>
<path d="M0 0 C1.32 0 2.64 0 4 0 C4 1.65 4 3.3 4 5 C2.35 4.67 0.7 4.34 -1 4 C-0.67 2.68 -0.34 1.36 0 0 Z " fill="#223835" transform="translate(275,109)"/>
<path d="M0 0 C1.32 0 2.64 0 4 0 C4 1.65 4 3.3 4 5 C2.35 4.67 0.7 4.34 -1 4 C-0.67 2.68 -0.34 1.36 0 0 Z " fill="#233936" transform="translate(222,109)"/>
<path d="M0 0 C1.32 0 2.64 0 4 0 C4 1.65 4 3.3 4 5 C2.35 4.67 0.7 4.34 -1 4 C-0.67 2.68 -0.34 1.36 0 0 Z " fill="#233936" transform="translate(313,108)"/>
<path d="M0 0 C1.32 0 2.64 0 4 0 C4 1.65 4 3.3 4 5 C2.35 4.67 0.7 4.34 -1 4 C-0.67 2.68 -0.34 1.36 0 0 Z " fill="#243936" transform="translate(184,108)"/>
<path d="M0 0 C0 0.33 0 0.66 0 1 C-4.29 0.67 -8.58 0.34 -13 0 C-13 -0.33 -13 -0.66 -13 -1 C-7.96488101 -2.0070238 -4.76052962 -1.97387813 0 0 Z " fill="#AFA68C" transform="translate(271,123)"/>
<path d="M0 0 C0.33 0 0.66 0 1 0 C2.07421875 5.95703125 2.07421875 5.95703125 2 8 C1.01 8.99 0.02 9.98 -1 11 C-0.67 7.37 -0.34 3.74 0 0 Z " fill="#BEB295" transform="translate(377,260)"/>
</svg>
